<svg width="44" height="42" viewBox="0 0 44 42" fill="none" xmlns="http://www.w3.org/2000/svg">
<g id="Medal">
<path id="Vector" d="M20.2918 12.045C21.0518 10.6817 21.4318 10 22 10C22.5682 10 22.9482 10.6817 23.7082 12.045L23.9048 12.3977C24.1206 12.7852 24.2286 12.9789 24.397 13.1067C24.5654 13.2345 24.775 13.282 25.1944 13.3768L25.5762 13.4632C27.052 13.7972 27.79 13.9641 27.9656 14.5287C28.1412 15.0932 27.638 15.6815 26.632 16.858L26.3716 17.1624C26.0858 17.4967 25.9428 17.6639 25.8784 17.8707C25.8142 18.0774 25.8358 18.3004 25.879 18.7466L25.9184 19.1526C26.0704 20.7224 26.1466 21.5072 25.687 21.8562C25.2272 22.205 24.5364 21.887 23.1546 21.2508L22.7972 21.0862C22.4044 20.9054 22.2082 20.815 22 20.815C21.7918 20.815 21.5956 20.9054 21.2028 21.0862L20.8454 21.2508C19.4636 21.887 18.7728 22.205 18.313 21.8562C17.8535 21.5072 17.9295 20.7224 18.0816 19.1526L18.121 18.7466C18.1642 18.3004 18.1858 18.0774 18.1216 17.8707C18.0572 17.6639 17.9143 17.4967 17.6284 17.1624L17.3681 16.858C16.3619 15.6815 15.8589 15.0932 16.0345 14.5287C16.21 13.9641 16.9479 13.7972 18.4238 13.4632L18.8056 13.3768C19.225 13.282 19.4346 13.2345 19.603 13.1067C19.7714 12.9789 19.8794 12.7852 20.0952 12.3977L20.2918 12.045Z" stroke="#1274E0" stroke-width="2.5"/>
<path id="Vector_2" d="M35.9991 16.0001C35.9991 23.7321 29.7311 30.0001 21.9991 30.0001C14.2671 30.0001 7.99902 23.7321 7.99902 16.0001C7.99902 8.26805 14.2671 2 21.9991 2C29.7311 2 35.9991 8.26805 35.9991 16.0001Z" stroke="#1274E0" stroke-width="2.5"/>
<path id="Vector_3" d="M22.0001 30.1356L14.4571 37.9457C13.3769 39.0643 12.8368 39.6235 12.3794 39.8169C11.3371 40.2579 10.1809 39.8805 9.63259 38.9205C9.39197 38.4991 9.31699 37.7391 9.16702 36.2191C9.08236 35.3609 9.04002 34.9317 8.91152 34.5723C8.62384 33.7676 8.01934 33.1416 7.24222 32.8438C6.8951 32.7108 6.48067 32.667 5.65179 32.5792C4.18374 32.424 3.44972 32.3464 3.04276 32.0972C2.11544 31.5296 1.75095 30.3324 2.17686 29.2532C2.36376 28.7796 2.90388 28.2204 3.98412 27.1018L8.91152 22" stroke="#1274E0" stroke-width="2.5"/>
<path id="Vector_4" d="M22 30.1356L29.543 37.9457C30.6232 39.0643 31.1632 39.6235 31.6206 39.8169C32.663 40.2579 33.8192 39.8805 34.3675 38.9205C34.6081 38.4991 34.6831 37.7391 34.8331 36.2191C34.9177 35.3609 34.9601 34.9317 35.0885 34.5723C35.3763 33.7676 35.9807 33.1416 36.7579 32.8438C37.1051 32.7108 37.5195 32.667 38.3483 32.5792C39.8163 32.424 40.5503 32.3464 40.9573 32.0972C41.8847 31.5296 42.2491 30.3324 41.8233 29.2532C41.6363 28.7796 41.0963 28.2204 40.0159 27.1018L35.0885 22" stroke="#1274E0" stroke-width="2.5"/>
</g>
</svg>
