<svg width="43" height="44" viewBox="0 0 43 44" fill="none" xmlns="http://www.w3.org/2000/svg">
<g id="Gears">
<path id="Vector" d="M31.6857 29.214V25.8115C31.6857 25.4006 31.5225 25.0065 31.2319 24.7159C30.9413 24.4253 30.5472 24.262 30.1362 24.262H28.3869C28.0782 24.2614 27.7768 24.1691 27.5208 23.9967C27.2648 23.8243 27.0658 23.5797 26.9492 23.294L26.941 23.2743C26.8214 22.9896 26.7889 22.6759 26.8474 22.3728C26.906 22.0696 27.053 21.7906 27.27 21.571L28.5036 20.3373C28.6476 20.1935 28.7618 20.0227 28.8397 19.8347C28.9176 19.6468 28.9577 19.4453 28.9577 19.2418C28.9577 19.0383 28.9176 18.8368 28.8397 18.6489C28.7618 18.4609 28.6476 18.2901 28.5036 18.1463L26.1037 15.7349C25.9599 15.5909 25.7891 15.4768 25.6012 15.3988C25.4132 15.3209 25.2117 15.2808 25.0082 15.2808C24.8048 15.2808 24.6033 15.3209 24.4153 15.3988C24.2273 15.4768 24.0565 15.5909 23.9127 15.7349L22.6791 16.9685C22.4594 17.1855 22.1804 17.3326 21.8772 17.3911C21.5741 17.4497 21.2604 17.4171 20.9758 17.2975L20.956 17.2893C20.6705 17.1728 20.4261 16.9741 20.2538 16.7184C20.0814 16.4627 19.9889 16.1616 19.988 15.8533V14.1105C19.988 13.6996 19.8247 13.3055 19.5342 13.0149C19.2436 12.7243 18.8494 12.561 18.4385 12.561H15.0327C14.6218 12.561 14.2277 12.7243 13.9371 13.0149C13.6465 13.3055 13.4832 13.6996 13.4832 14.1105V15.8599C13.4826 16.1685 13.3903 16.47 13.2179 16.726C13.0455 16.9819 12.8009 17.1809 12.5152 17.2975L12.4955 17.3058C12.2108 17.4253 11.8971 17.4579 11.594 17.3993C11.2908 17.3408 11.0118 17.1937 10.7922 16.9768L9.5585 15.7431C9.41468 15.5992 9.2439 15.485 9.05593 15.4071C8.86795 15.3292 8.66647 15.2891 8.463 15.2891C8.25952 15.2891 8.05804 15.3292 7.87006 15.4071C7.68209 15.485 7.51131 15.5992 7.36749 15.7431L4.95853 18.143C4.8146 18.2868 4.70042 18.4576 4.62251 18.6456C4.54461 18.8336 4.50451 19.035 4.50451 19.2385C4.50451 19.442 4.54461 19.6435 4.62251 19.8314C4.70042 20.0194 4.8146 20.1902 4.95853 20.334L6.19221 21.5677C6.40918 21.7873 6.55622 22.0663 6.61477 22.3695C6.67332 22.6726 6.64075 22.9863 6.52119 23.271L6.51296 23.2907C6.39644 23.5762 6.19774 23.8206 5.94207 23.993C5.68641 24.1653 5.3853 24.2578 5.07697 24.2587H3.33173C3.12797 24.2587 2.92621 24.2989 2.738 24.377C2.54979 24.4551 2.37883 24.5695 2.2349 24.7137C2.09098 24.858 1.97691 25.0292 1.89923 25.2176C1.82156 25.4059 1.7818 25.6078 1.78223 25.8115V29.214C1.78223 29.625 1.94548 30.0191 2.23607 30.3097C2.52665 30.6003 2.92077 30.7635 3.33173 30.7635H5.08108C5.38941 30.7644 5.69052 30.8569 5.94619 31.0293C6.20185 31.2016 6.40056 31.4461 6.51708 31.7315L6.5253 31.7513C6.64487 32.0359 6.67743 32.3496 6.61888 32.6528C6.56033 32.9559 6.41329 33.2349 6.19632 33.4546L4.96265 34.6882C4.81871 34.8321 4.70453 35.0028 4.62662 35.1908C4.54872 35.3788 4.50862 35.5803 4.50862 35.7837C4.50862 35.9872 4.54872 36.1887 4.62662 36.3767C4.70453 36.5646 4.81871 36.7354 4.96265 36.8792L7.36831 39.2849C7.51214 39.4288 7.68292 39.543 7.87089 39.6209C8.05886 39.6988 8.26034 39.7389 8.46382 39.7389C8.66729 39.7389 8.86878 39.6988 9.05675 39.6209C9.24472 39.543 9.4155 39.4288 9.55932 39.2849L10.793 38.0512C11.0127 37.8343 11.2917 37.6872 11.5948 37.6287C11.8979 37.5701 12.2116 37.6027 12.4963 37.7223L12.516 37.7305C12.8015 37.847 13.0459 38.0457 13.2183 38.3014C13.3906 38.557 13.4831 38.8581 13.4841 39.1665V40.9158C13.4843 41.3265 13.6475 41.7203 13.9379 42.0107C14.2283 42.3011 14.6221 42.4643 15.0327 42.4645H18.4352C18.8462 42.4645 19.2403 42.3013 19.5309 42.0107C19.8215 41.7201 19.9847 41.326 19.9847 40.915V39.1657C19.9856 38.8573 20.0781 38.5562 20.2505 38.3006C20.4228 38.0449 20.6673 37.8462 20.9527 37.7297L20.9725 37.7214C21.2571 37.6019 21.5708 37.5693 21.874 37.6279C22.1771 37.6864 22.4561 37.8334 22.6758 38.0504L23.9094 39.2841C24.0533 39.428 24.224 39.5422 24.412 39.6201C24.6 39.698 24.8015 39.7381 25.0049 39.7381C25.2084 39.7381 25.4099 39.698 25.5979 39.6201C25.7858 39.5422 25.9566 39.428 26.1004 39.2841L28.5119 36.8825C28.6558 36.7387 28.77 36.5679 28.8479 36.38C28.9258 36.192 28.9659 35.9905 28.9659 35.787C28.9659 35.5836 28.9258 35.3821 28.8479 35.1941C28.77 35.0061 28.6558 34.8354 28.5119 34.6915L27.2782 33.4579C27.0612 33.2382 26.9142 32.9592 26.8556 32.656C26.7971 32.3529 26.8296 32.0392 26.9492 31.7546L26.9574 31.7348C27.074 31.4494 27.2727 31.2049 27.5283 31.0326C27.784 30.8602 28.0851 30.7677 28.3934 30.7668H30.1428C30.5532 30.7651 30.9461 30.6006 31.2354 30.3095C31.5246 30.0184 31.6866 29.6244 31.6857 29.214Z" stroke="#1274E0" stroke-width="2.2" stroke-linecap="round" stroke-linejoin="round"/>
<path id="Vector_2" d="M16.7349 33.6642C20.1326 33.6642 22.8869 30.9099 22.8869 27.5123C22.8869 24.1147 20.1326 21.3604 16.7349 21.3604C13.3373 21.3604 10.583 24.1147 10.583 27.5123C10.583 30.9099 13.3373 33.6642 16.7349 33.6642Z" stroke="#1274E0" stroke-width="2.2" stroke-linecap="round" stroke-linejoin="round"/>
<path id="Vector_3" d="M18.0215 12.5611V12.5274C18.0215 12.2002 18.1515 11.8864 18.3828 11.655C18.6142 11.4237 18.928 11.2937 19.2552 11.2937H20.6451C20.8903 11.2934 21.1298 11.2202 21.3331 11.0832C21.5364 10.9462 21.6943 10.7518 21.7867 10.5247C21.7867 10.5198 21.7908 10.514 21.7932 10.5091C21.8883 10.2826 21.9139 10.033 21.8667 9.79192C21.8196 9.55087 21.7018 9.32928 21.5284 9.15532L20.5415 8.17331C20.3112 7.9421 20.1819 7.62907 20.1819 7.30275C20.1819 6.97643 20.3112 6.6634 20.5415 6.43218L22.4528 4.52081C22.684 4.29079 22.9969 4.16166 23.323 4.16166C23.6491 4.16166 23.962 4.29079 24.1932 4.52081L25.176 5.50775C25.3503 5.68033 25.5719 5.79731 25.8127 5.84387C26.0536 5.89042 26.3028 5.86447 26.5289 5.76929L26.5445 5.76271C26.7718 5.6705 26.9664 5.51265 27.1035 5.30931C27.2406 5.10598 27.314 4.86639 27.3144 4.62115V3.23368C27.3144 2.90648 27.4443 2.59269 27.6757 2.36134C27.907 2.12998 28.2208 2 28.548 2H31.2514C31.5786 2 31.8924 2.12998 32.1238 2.36134C32.3551 2.59269 32.4851 2.90648 32.4851 3.23368V4.62362C32.4853 4.86877 32.5586 5.10829 32.6956 5.31161C32.8326 5.51493 33.027 5.67284 33.2541 5.76518L33.2689 5.77176C33.4951 5.8669 33.7445 5.89283 33.9854 5.84628C34.2264 5.79972 34.4481 5.68278 34.6226 5.51022L35.6096 4.52328C35.8408 4.29325 36.1536 4.16412 36.4797 4.16412C36.8059 4.16412 37.1187 4.29325 37.3499 4.52328L39.2613 6.43465C39.4915 6.66587 39.6208 6.97889 39.6208 7.30522C39.6208 7.63154 39.4915 7.94457 39.2613 8.17578L38.2727 9.15532C38.0999 9.32968 37.9828 9.55149 37.9364 9.79254C37.89 10.0336 37.9163 10.283 38.012 10.5091L38.0177 10.5247C38.11 10.7517 38.2678 10.946 38.4709 11.083C38.6741 11.2199 38.9134 11.2933 39.1585 11.2937H40.5484C40.8756 11.2937 41.1894 11.4237 41.4207 11.655C41.6521 11.8864 41.7821 12.2002 41.7821 12.5274V15.2299C41.7821 15.5571 41.6521 15.8709 41.4207 16.1023C41.1894 16.3336 40.8756 16.4636 40.5484 16.4636H39.1585C38.9134 16.4641 38.6739 16.5376 38.4708 16.6747C38.2676 16.8118 38.1099 17.0063 38.0177 17.2334L38.012 17.2482C37.9157 17.4742 37.8891 17.7237 37.9356 17.9649C37.982 18.2061 38.0994 18.4279 38.2727 18.602L39.2555 19.5848C39.4855 19.816 39.6147 20.1288 39.6147 20.455C39.6147 20.7811 39.4855 21.0939 39.2555 21.3251L37.3441 23.2365C37.113 23.4665 36.8001 23.5956 36.474 23.5956C36.1479 23.5956 35.835 23.4665 35.6038 23.2365L34.6169 22.2537C34.4429 22.0802 34.2211 21.9627 33.98 21.9161C33.7388 21.8695 33.4892 21.896 33.2631 21.9921L33.2483 21.9979C33.0224 22.0907 32.8291 22.2485 32.6929 22.4513C32.5568 22.6541 32.4839 22.8927 32.4835 23.137V24.5269C32.4825 24.7778 32.405 25.0224 32.2615 25.2281C32.1179 25.4338 31.915 25.5909 31.6799 25.6783" stroke="#1274E0" stroke-width="2.2" stroke-linecap="round" stroke-linejoin="round"/>
<path id="Vector_4" d="M29.9 17.883C32.1116 17.883 33.9045 16.0902 33.9045 13.8785C33.9045 11.6669 32.1116 9.87402 29.9 9.87402C27.6884 9.87402 25.8955 11.6669 25.8955 13.8785C25.8955 16.0902 27.6884 17.883 29.9 17.883Z" stroke="#1274E0" stroke-width="2.2" stroke-linecap="round" stroke-linejoin="round"/>
</g>
</svg>
