<svg width="37" height="42" viewBox="0 0 37 42" fill="none" xmlns="http://www.w3.org/2000/svg">
<g id="User like">
<path id="Vector" d="M15.579 39.6034H2C2 32.2363 7.44772 26.1416 14.5345 25.128M28.1085 29.6007C26.6466 27.9731 24.2088 27.5352 22.3771 29.0258C20.5456 30.5162 20.2876 33.0082 21.7261 34.771C22.5382 35.7662 24.4676 37.5108 25.9939 38.8416C26.7178 39.4727 27.0796 39.7883 27.5175 39.9174C27.8908 40.0275 28.3262 40.0275 28.6995 39.9174C29.1374 39.7883 29.4992 39.4727 30.2231 38.8416C31.7493 37.5108 33.6788 35.7662 34.4908 34.771C35.9294 33.0082 35.7029 30.5005 33.8399 29.0258C31.9766 27.5509 29.5704 27.9731 28.1085 29.6007ZM24.9799 10.3563C24.9799 14.9714 21.2385 18.7126 16.6236 18.7126C12.0085 18.7126 8.26724 14.9714 8.26724 10.3563C8.26724 5.74125 12.0085 2 16.6236 2C21.2385 2 24.9799 5.74125 24.9799 10.3563Z" stroke="#1274E0" stroke-width="2.5" stroke-linecap="round" stroke-linejoin="round"/>
</g>
</svg>
