<svg width="44" height="42" viewBox="0 0 44 42" fill="none" xmlns="http://www.w3.org/2000/svg">
<g id="Medal">
<path id="Vector" d="M20.2916 12.045C21.0516 10.6817 21.4316 10 21.9998 10C22.568 10 22.948 10.6817 23.708 12.045L23.9046 12.3977C24.1204 12.7852 24.2284 12.9789 24.3968 13.1067C24.5652 13.2345 24.7748 13.282 25.1942 13.3768L25.576 13.4632C27.0518 13.7972 27.7898 13.9641 27.9654 14.5287C28.141 15.0932 27.6378 15.6815 26.6318 16.858L26.3714 17.1624C26.0856 17.4967 25.9426 17.6639 25.8782 17.8707C25.814 18.0774 25.8356 18.3004 25.8788 18.7466L25.9182 19.1526C26.0702 20.7224 26.1464 21.5072 25.6868 21.8562C25.227 22.205 24.5362 21.887 23.1544 21.2508L22.797 21.0862C22.4042 20.9054 22.208 20.815 21.9998 20.815C21.7916 20.815 21.5954 20.9054 21.2026 21.0862L20.8452 21.2508C19.4634 21.887 18.7726 22.205 18.3128 21.8562C17.8532 21.5072 17.9293 20.7224 18.0814 19.1526L18.1208 18.7466C18.164 18.3004 18.1856 18.0774 18.1214 17.8707C18.057 17.6639 17.914 17.4967 17.6281 17.1624L17.3678 16.858C16.3617 15.6815 15.8586 15.0932 16.0342 14.5287C16.2098 13.9641 16.9477 13.7972 18.4236 13.4632L18.8054 13.3768C19.2248 13.282 19.4344 13.2345 19.6028 13.1067C19.7712 12.9789 19.8792 12.7852 20.095 12.3977L20.2916 12.045Z" stroke="#1274E0" stroke-width="2.5"/>
<path id="Vector_2" d="M35.9993 16.0001C35.9993 23.7321 29.7312 30.0001 21.9992 30.0001C14.2672 30.0001 7.99915 23.7321 7.99915 16.0001C7.99915 8.26805 14.2672 2 21.9992 2C29.7312 2 35.9993 8.26805 35.9993 16.0001Z" stroke="#1274E0" stroke-width="2.5"/>
<path id="Vector_3" d="M22.0001 30.1356L14.4571 37.9457C13.3769 39.0643 12.8368 39.6235 12.3794 39.8169C11.3371 40.2579 10.1809 39.8805 9.63259 38.9205C9.39197 38.4991 9.31699 37.7391 9.16702 36.2191C9.08236 35.3609 9.04002 34.9317 8.91152 34.5723C8.62384 33.7676 8.01934 33.1416 7.24222 32.8438C6.8951 32.7108 6.48067 32.667 5.65179 32.5792C4.18374 32.424 3.44972 32.3464 3.04276 32.0972C2.11544 31.5296 1.75095 30.3324 2.17686 29.2532C2.36376 28.7796 2.90388 28.2204 3.98412 27.1018L8.91152 22" stroke="#1274E0" stroke-width="2.5"/>
<path id="Vector_4" d="M21.9996 30.1356L29.5427 37.9457C30.6229 39.0643 31.1629 39.6235 31.6203 39.8169C32.6627 40.2579 33.8189 39.8805 34.3671 38.9205C34.6077 38.4991 34.6827 37.7391 34.8327 36.2191C34.9173 35.3609 34.9597 34.9317 35.0881 34.5723C35.3759 33.7676 35.9803 33.1416 36.7575 32.8438C37.1047 32.7108 37.5191 32.667 38.3479 32.5792C39.8159 32.424 40.5499 32.3464 40.9569 32.0972C41.8843 31.5296 42.2487 30.3324 41.8229 29.2532C41.6359 28.7796 41.0959 28.2204 40.0155 27.1018L35.0881 22" stroke="#1274E0" stroke-width="2.5"/>
</g>
</svg>
