<svg width="458" height="254" viewBox="0 0 458 254" fill="none" xmlns="http://www.w3.org/2000/svg">
<g clip-path="url(#clip0_167_1618)">
<path d="M28.0567 251.974C28.0567 251.974 -27.8573 191.94 18.6014 126.947C59.8227 69.2778 107.882 73.2213 143.141 96.6237C158.159 106.59 201.457 97.8512 238.309 39.1734C288.564 -40.8487 462.769 7.6843 431.005 130.802C415.634 190.383 477.786 192.547 446.116 252.104L28.0567 251.979V251.974Z" fill="#E6E6E6"/>
<path d="M201.281 141.746C201.281 141.746 206.361 137.967 207.33 137.627C208.299 137.286 211.492 136.878 211.644 137.142C211.798 137.406 212.248 138.212 211.694 138.5C211.141 138.788 210.443 138.702 210.656 138.891C210.869 139.08 212.951 137.981 213.457 139.107C213.963 140.231 214.456 144.108 212.009 145.335C209.562 146.56 203.456 145.612 203.019 145.756C199.316 146.973 201.281 141.746 201.281 141.746Z" fill="#1361B7"/>
<path d="M203.105 143.093C202.924 140.09 201.403 139.802 201.403 139.802C201.403 139.802 172.119 138.372 169.587 137.906C167.054 137.44 143.375 117.518 143.375 117.518C143.375 117.518 134.205 109.144 127.95 112.166C122.513 114.791 120.889 119.784 120.7 124.345C120.473 129.782 123.463 134.796 128.166 137.001C138.723 141.948 159.836 151.654 164.618 152.429C175.258 154.154 202.399 147.335 202.399 147.335C202.399 147.335 203.248 145.45 203.105 143.091V143.093Z" fill="#1361B7"/>
<path d="M295.87 118.753H199.254V251.987H295.87V118.753Z" fill="#657285"/>
<path d="M271.123 118.753H173.908V251.987H271.123V118.753Z" fill="#B8C1C9"/>
<path d="M173.908 136.114H271.123V135.462H173.908V136.114Z" fill="#657285"/>
<path d="M173.908 235.883H271.123V234.626H173.908V235.883Z" fill="#9E9E9E"/>
<path d="M190.239 132.836C193.222 132.836 195.641 130.418 195.641 127.434C195.641 124.45 193.222 122.031 190.239 122.031C187.255 122.031 184.836 124.45 184.836 127.434C184.836 130.418 187.255 132.836 190.239 132.836Z" fill="#657285"/>
<path d="M148.226 252.008H169.972C169.629 251.18 168.801 250.102 166.783 249.748C163.358 249.148 157.412 247.295 158.174 242.351C158.946 237.339 150.604 236.692 150.604 236.692C150.604 236.692 147.134 250.099 148.226 252.008Z" fill="#2F3133"/>
<path d="M263.251 132.836H248.843C246.691 132.836 244.945 131.09 244.945 128.938V125.935C244.945 123.783 246.691 122.034 248.846 122.034H263.253C265.405 122.034 267.154 123.781 267.154 125.935V128.938C267.154 131.09 265.408 132.836 263.256 132.836H263.251Z" fill="#657285"/>
<path d="M201.756 132.11H215.445C216.361 132.11 217.104 131.367 217.104 130.451V125.32C217.104 124.404 216.361 123.661 215.445 123.661H201.756C200.84 123.661 200.097 124.404 200.097 125.32V130.451C200.097 131.367 200.84 132.11 201.756 132.11Z" fill="#657285"/>
<path d="M215.98 220.607C235.493 220.607 251.311 203.876 251.311 183.236C251.311 162.597 235.493 145.865 215.98 145.865C196.467 145.865 180.648 162.597 180.648 183.236C180.648 203.876 196.467 220.607 215.98 220.607Z" fill="#2F3133"/>
<path d="M110.144 201.71C110.322 202.133 110.559 202.508 110.849 202.828C111.19 203.201 111.8 203.563 112.649 203.912C115.488 205.081 120.978 206.103 127.859 206.801C135.008 207.528 143.654 207.914 152.385 207.765C155.072 207.719 157.769 207.624 160.432 207.469C179.739 206.369 197.281 202.319 197.302 193.205C197.326 183.936 167.754 177.05 145.321 173.166C142.999 172.764 140.752 172.388 138.624 172.053C128.192 170.396 120.571 169.528 120.571 169.528C120.571 169.528 120.148 170.279 119.463 171.557C119.122 172.194 118.723 172.958 118.273 173.829C116.034 178.193 112.708 185.161 110.895 191.312C109.651 195.535 109.116 199.369 110.144 201.707V201.71Z" fill="#464A4F"/>
<path d="M110.143 201.709C110.953 202.452 111.791 203.187 112.651 203.911C115.49 205.08 120.98 206.103 127.861 206.8C135.01 207.527 167.796 207.57 176.527 207.418C166.278 190.851 135.181 187.565 133.271 185.368C133.117 185.187 112.71 185.163 110.897 191.312C109.653 195.535 109.118 199.369 110.146 201.707L110.143 201.709Z" fill="#2F3133"/>
<path d="M195.904 197.399C195.904 197.399 162.591 239.086 160.347 244.129C160.347 244.129 151.168 244.984 148.961 238.426C148.961 238.426 164.996 193.637 172.044 189.946C179.092 186.256 195.904 197.396 195.904 197.396V197.399Z" fill="#464A4F"/>
<path d="M135.166 101.957C135.166 101.957 144.456 114.672 152.737 115.351C152.737 115.351 151.68 110.566 149.236 107.546C149.893 106.486 150.463 105.517 150.953 104.652C152.58 101.771 153.302 100.048 153.302 100.048L149.494 93.1569L148.708 89.4531C148.064 91.1919 147.311 92.7975 146.469 94.1208C142.129 100.935 135.171 101.957 135.171 101.957H135.166Z" fill="#F0BA93"/>
<path d="M146.102 94.0542C146.102 94.0542 144.755 100.423 150.951 104.654C152.578 101.773 153.3 100.051 153.3 100.051L149.492 93.1595C146.448 92.7095 146.105 94.0542 146.105 94.0542H146.102Z" fill="#D19E78"/>
<path d="M154.457 103.893C154.457 103.893 142.805 97.5452 146.868 90.348C150.931 83.1533 152.167 77.4871 159.779 81.2362C167.392 84.9853 167.272 88.54 166.5 91.2719C165.728 94.0038 157.591 105.358 154.457 103.893Z" fill="#F0BA93"/>
<path d="M146.911 76.02C146.847 75.8389 146.621 75.6259 146.035 75.3623C146.035 75.3623 146.629 75.2424 147.276 75.4741C147.726 74.678 148.748 73.3546 150.319 73.5436C150.319 73.5436 149.39 73.6635 148.942 74.5209C151.267 73.4318 155.306 73.5463 164.836 78.1341C177.396 84.1811 169.869 90.9577 167.802 91.3145C165.736 91.6713 162.575 87.2858 159.354 86.3299C156.129 85.374 153.762 89.7328 152.46 89.9512C151.155 90.1722 152.002 89.2189 150.822 88.0048C149.64 86.7932 148.572 89.155 148.381 90.8831C148.189 92.6139 145.417 93.9239 145.417 93.9239L144.267 90.9737C143.116 88.0261 144.805 78.0676 146.469 76.4513C146.615 76.3075 146.764 76.1637 146.913 76.0173L146.911 76.02Z" fill="#2F3133"/>
<path d="M77.3377 237.715C77.3377 237.715 74.6271 242.191 73.996 243.639C73.365 245.09 74.6031 248.177 76.4617 248.64C78.1019 249.05 78.3469 252.211 78.3469 252.211H70.4014C69.56 252.211 68.8011 251.707 68.4763 250.93C67.3553 248.246 67.0996 244.758 66.8733 243.589C66.3994 241.134 65.4594 239.075 65.8748 236.575C66.2875 234.086 70.2017 232.642 77.3377 232.666C85.1767 232.693 77.3377 237.709 77.3377 237.709V237.715Z" fill="#2F3133"/>
<path d="M102.513 191.69C104.774 200.267 110.254 214.078 116.508 226.321C119.68 232.534 123.053 238.344 126.307 242.862C129.971 247.951 133.478 251.396 136.375 251.937C137.142 252.078 137.863 252.017 138.534 251.732C140.201 251.021 141.418 249.064 142.275 246.22C147.566 228.694 139.293 177.597 139.293 177.597C139.293 177.597 130.959 177.525 122.111 178.236C112.943 178.973 103.227 180.547 101.645 183.897C101.123 185.007 101.486 187.814 102.511 191.696L102.513 191.69Z" fill="#464A4F"/>
<path d="M100.697 183.193C106.691 189.544 150.692 176.406 147.004 173.059C146.067 172.21 146.387 171.187 146.006 169.819C144.179 163.324 147.814 152.207 149.374 147.899C149.739 146.901 149.989 146.27 150.035 146.142C151.523 142.119 152.673 137.933 153.427 133.888C154.878 126.124 154.851 118.902 152.868 114.48C152.854 114.456 152.852 114.437 152.838 114.418C144.595 112.009 140.057 99.8828 140.057 99.8828C140.057 99.8828 113.944 107.298 104.468 144.56C104.468 144.56 103.978 146.935 103.376 150.501H103.373C103.192 151.595 102.995 152.801 102.801 154.087C101.789 160.717 101.201 169.219 100.602 175.551C100.578 175.77 100.556 175.993 100.535 176.222C100.234 178.952 99.7122 182.136 100.708 183.193H100.697Z" fill="#1274E0"/>
<path d="M76.4966 240.742C77.6443 240.753 81.0924 241.283 85.8001 242.108C102.852 245.093 136.375 251.947 136.375 251.947C136.375 251.947 136.375 251.944 136.378 251.934C136.405 251.707 136.777 248.717 136.865 244.861C137.001 238.711 136.407 230.352 132.522 227.509C130.459 225.994 124.138 225.839 116.512 226.321C100.44 227.333 78.5762 231.194 78.5762 231.194C75.0002 235.593 76.4993 240.742 76.4993 240.742H76.4966Z" fill="#464A4F"/>
<path d="M102.515 191.69C111.384 191.411 133.634 180.488 133.269 180.401C129.126 179.381 125.422 178.675 122.115 178.23C112.947 178.968 103.231 180.542 101.649 183.891C101.127 185.002 101.489 187.808 102.515 191.69Z" fill="#2F3133"/>
<path d="M221.741 220.607C240.28 220.607 255.309 203.876 255.309 183.236C255.309 162.597 240.28 145.865 221.741 145.865C203.201 145.865 188.172 162.597 188.172 183.236C188.172 203.876 203.201 220.607 221.741 220.607Z" fill="#657285"/>
<path d="M194.668 183.236C194.668 187.537 195.477 191.626 196.937 195.325C201.12 205.952 210.649 213.37 221.74 213.37C236.688 213.37 248.809 199.881 248.809 183.236C248.809 170.889 242.141 160.284 232.598 155.627C229.272 154.003 225.601 153.103 221.74 153.103C206.789 153.103 194.668 166.592 194.668 183.236Z" fill="#EAEAEA"/>
<path d="M131 125.344C131 125.344 131.517 165.702 146.01 169.819C144.183 163.324 147.818 152.208 149.378 147.899C145.642 137.52 138.767 127.051 131.003 125.344H131Z" fill="#1361B7"/>
<path d="M135.675 101.699C135.675 101.699 146.837 104.021 147.926 113.803C148.72 120.926 140.931 137.057 140.931 137.057L139.448 135.574C139.448 135.574 146.286 115.657 145.234 112.27C143.887 107.924 137.467 101.427 131.566 104.023L135.675 101.701V101.699Z" fill="#464A4F"/>
<path d="M100.698 183.194C106.691 189.544 151.64 176.548 147.953 173.198C147.015 172.348 146.387 171.188 146.006 169.816C144.179 163.322 147.814 152.205 149.374 147.897C149.739 146.898 149.989 146.267 150.035 146.14L147.763 143.871L139.445 135.571C139.445 135.571 136.985 138.362 132.336 141.528C126.244 145.682 116.386 150.48 103.368 150.498H103.366C103.185 151.593 102.988 152.799 102.793 154.085C101.781 160.715 101.193 169.217 100.594 175.549C100.57 175.767 100.549 175.991 100.527 176.22C100.226 178.949 99.7044 182.134 100.7 183.191L100.698 183.194Z" fill="#464A4F"/>
<path d="M132.338 141.53C134.002 153.262 137.719 167.465 146.006 169.819C144.179 163.324 147.813 152.208 149.374 147.899C148.889 146.552 148.351 145.205 147.766 143.873L139.447 135.574C139.447 135.574 136.987 138.364 132.338 141.53Z" fill="#2F3133"/>
<path d="M191.907 161.37C191.907 161.37 197.991 160.033 199.014 160.113C200.036 160.193 203.138 161.072 203.184 161.362C203.229 161.652 203.352 162.534 202.734 162.568C202.116 162.606 201.501 162.262 201.629 162.51C201.757 162.757 204.086 162.603 204.142 163.782C204.196 164.962 203.234 168.543 200.521 168.666C197.808 168.791 192.506 165.596 192.048 165.551C188.177 165.178 191.91 161.37 191.91 161.37H191.907Z" fill="#F0BA93"/>
<path d="M193.104 163.255C194.036 160.558 192.736 159.719 192.736 159.719C192.736 159.719 166.168 147.119 163.995 145.732C161.822 144.345 147.217 117.742 147.217 117.742C147.217 117.742 141.801 106.864 134.908 107.083C128.914 107.272 125.586 111.008 123.738 114.924C121.536 119.592 122.465 125.136 126.009 128.885C133.965 137.304 149.941 153.973 154.079 156.505C163.292 162.137 190.896 166.693 190.896 166.693C190.896 166.693 192.371 165.375 193.104 163.255Z" fill="#1274E0"/>
<path d="M85.7995 242.111C102.851 245.096 136.375 251.95 136.375 251.95C136.375 251.95 136.375 251.947 136.377 251.937C137.144 252.078 137.866 252.016 138.537 251.731C140.204 251.021 141.421 249.063 142.278 246.22C142.278 246.22 140.297 245.639 136.862 244.867C134.159 244.257 130.557 243.528 126.307 242.865C115.553 241.185 100.663 239.925 85.7969 242.114L85.7995 242.111Z" fill="#2F3133"/>
<path d="M232.196 245.466H258.796V213.133C258.796 210.619 260.855 208.561 263.368 208.561H309.081C311.595 208.561 313.653 210.619 313.653 213.133V247.418C313.653 249.931 311.598 251.99 309.081 251.99H274.392C274.019 252.133 273.614 252.213 273.191 252.213H232.196C230.332 252.213 228.822 250.704 228.822 248.84C228.822 246.976 230.332 245.466 232.196 245.466Z" fill="#1361B7"/>
<path d="M268.702 208.561H271.112C273.008 207.429 283.222 201.611 293.039 201.539C300.122 201.489 308.195 208.449 308.68 208.524C308.765 208.537 308.816 208.55 308.842 208.561H314.418C316.931 208.561 318.99 210.619 318.99 213.133V247.418C318.99 249.931 316.934 251.989 314.418 251.989H268.705C266.191 251.989 264.133 249.931 264.133 247.418V213.133C264.133 210.619 266.191 208.561 268.705 208.561H268.702ZM292.988 204.016C289.564 203.912 281.965 207.184 278.927 208.561H304.193C302.569 207.645 296.112 204.111 292.986 204.016H292.988Z" fill="#1274E0"/>
<path d="M399.584 234.12C399.584 234.12 403.408 237.664 402.662 240.183C401.917 242.702 398.466 244.379 398 247.458C397.534 250.536 395.667 252.213 393.99 252.213H385.986C385.986 252.213 384.75 250.048 387.735 249.393C390.72 248.741 391.846 245.122 391.657 241.765C391.471 238.407 391.937 233.931 391.937 233.931L398.28 232.44L399.584 234.12Z" fill="#2F3133"/>
<path d="M351.925 251.869C351.632 252.016 350.778 252.128 349.569 252.213H330.211C330.301 251.593 330.807 249.808 333.643 249.351C336.985 248.81 342.779 246.866 344.073 242.59C344.113 242.451 344.15 242.31 344.182 242.169C345.207 237.6 352.671 243.57 352.671 243.57C352.671 243.57 352.692 243.754 352.727 244.062C352.9 245.737 353.342 251.161 351.928 251.872L351.925 251.869Z" fill="#2F3133"/>
<path d="M334.529 129.625C334.529 129.625 335.664 143.764 336.995 160.76C338.806 183.848 340.981 212.206 341.197 217.579C341.569 226.909 343.063 241.831 343.063 241.831C343.063 241.831 346.605 245.375 353.695 243.881C353.695 243.881 360.014 222.58 361.819 200.04C361.846 199.67 361.875 199.3 361.905 198.927C363.582 175.983 366.194 127.668 366.194 127.668L334.529 129.628V129.625Z" fill="#464A4F"/>
<path d="M334.529 129.625C334.529 129.625 335.664 143.764 336.995 160.76L361.819 200.04C361.846 199.67 361.875 199.3 361.905 198.927C363.582 175.983 366.194 127.668 366.194 127.668L334.529 129.628V129.625Z" fill="#2F3133"/>
<path d="M339.706 131.305C339.706 131.305 360.131 182.512 373.562 206.574C386.993 230.637 391.189 237.355 391.189 237.355C391.189 237.355 398.884 234.277 399.585 232.179C399.585 232.179 394.448 185.723 385.454 174.398C380.37 168 374.401 148.797 374.121 142.081C373.842 135.366 372.303 122.074 372.303 122.074L339.703 131.308L339.706 131.305Z" fill="#464A4F"/>
<path d="M299.62 124.217C299.62 124.217 292.412 127.676 291.443 128.565C290.474 129.452 288.078 133.814 288.261 134.141C288.445 134.469 288.804 134.573 289.457 134.12C290.109 133.667 291.944 131.779 292.01 132.131C292.077 132.482 287.116 138.319 287.995 139.554C288.871 140.79 293.845 140.425 296.686 138.404C299.527 136.386 302.36 128.96 302.789 128.555C306.41 125.117 299.623 124.217 299.623 124.217H299.62Z" fill="#F0BA93"/>
<path d="M299.295 127.926C297.293 126.185 297.242 125.746 297.242 125.746C297.242 125.746 310.023 103.643 311.131 101.518C312.239 99.393 319.09 66.1972 319.09 66.1972L342.772 59.3301C342.772 59.3301 326.09 102.463 323.177 107.794C318.363 116.602 302.647 129.567 302.647 129.567C302.647 129.567 300.869 129.29 299.295 127.924V127.926Z" fill="#1361B7"/>
<path d="M330.707 50.692C330.707 50.692 322.372 65.3555 314.227 67.27C314.227 67.27 314.565 62.344 316.549 58.9757C315.737 58.0171 315.023 57.1384 314.406 56.3503C312.355 53.7222 311.381 52.1139 311.381 52.1139L314.145 44.6823L316.022 39.6392C316.925 41.2767 317.918 42.6693 318.954 43.8622C324.292 49.9997 330.709 50.692 330.709 50.692H330.707Z" fill="#F0BA93"/>
<path d="M318.953 43.8623C318.953 43.8623 319.946 51.2114 314.408 56.3504C312.357 53.7223 311.383 52.114 311.383 52.114L314.147 44.6824C317.11 43.7798 318.953 43.8623 318.953 43.8623Z" fill="#D19E78"/>
<path d="M309.185 53.1979C309.185 53.1979 321.638 48.3438 318.493 40.6353C315.351 32.9268 314.843 27.1088 306.759 29.8834C298.675 32.6579 298.339 36.2232 298.763 39.051C299.186 41.8788 305.864 54.2604 309.185 53.1979Z" fill="#F0BA93"/>
<path d="M373.51 125.943C368.488 133.164 330.928 142.814 331.378 137.816C331.548 135.901 331.777 132.53 331.373 127.956C331.277 126.883 331.144 125.746 330.973 124.55C330.015 117.979 327.751 109.535 322.695 99.7553C322.317 99.023 321.923 98.2855 321.513 97.5373C319.428 93.7536 317.657 89.7542 316.307 85.8374C313.703 78.3179 312.651 71.1206 313.969 66.4183C313.974 66.3943 313.98 66.373 313.99 66.3544C321.84 62.7251 324.881 48.6475 324.881 48.6475C324.881 48.6475 351.665 53.4536 366.669 89.1551C366.669 89.1551 368.11 93.0746 369.755 98.3946C371.755 104.846 374.058 113.354 374.458 119.425C374.652 122.306 374.412 124.641 373.51 125.943Z" fill="#1274E0"/>
<path d="M320.282 26.3154C320.37 26.1423 320.622 25.9586 321.24 25.7695C321.24 25.7695 320.66 25.5752 319.986 25.7243C319.637 24.8722 318.788 23.4184 317.193 23.4077C317.193 23.4077 318.106 23.6447 318.444 24.5607C316.261 23.1761 312.211 22.774 302.103 26.1396C288.782 30.5757 295.439 38.3082 297.457 38.9286C299.475 39.549 303.192 35.5709 306.537 35.0277C309.879 34.4845 311.689 39.1416 312.962 39.5277C314.235 39.9138 313.513 38.854 314.847 37.7943C316.181 36.7319 316.948 39.2295 316.919 40.9815C316.889 42.7336 319.491 44.3978 319.491 44.3978L321.017 41.5993C322.542 38.8008 322.127 28.6373 320.67 26.808C320.543 26.6456 320.412 26.4831 320.282 26.318V26.3154Z" fill="#2F3133"/>
<path d="M374.457 119.424C342.137 109.676 336.998 71.1416 336.998 71.1416C336.998 71.1416 355.4 85.2033 369.755 98.3943C371.754 104.846 374.057 113.353 374.457 119.424Z" fill="#1361B7"/>
<path d="M366.846 139.692L370.422 138.532C371.838 137.237 379.536 130.456 388.126 127.617C394.325 125.57 402.907 127.913 403.349 127.825C404.47 127.601 399.807 129.162 399.807 129.162C399.807 129.162 391.793 128.333 388.621 129.281C385.597 130.184 379.643 134.53 377.278 136.311L397.32 129.809C398.995 129.265 400.811 130.192 401.357 131.867L408.77 154.721C409.313 156.396 408.387 158.212 406.712 158.757L376.24 168.641C374.565 169.185 372.749 168.258 372.203 166.583L364.79 143.729C364.247 142.054 365.174 140.238 366.848 139.692H366.846Z" fill="#1361B7"/>
<path d="M376.746 136.497L407.218 126.614C408.9 126.068 410.708 126.991 411.254 128.672L418.666 151.526C419.211 153.208 418.289 155.016 416.607 155.561L386.135 165.445C384.453 165.99 382.645 165.068 382.1 163.386L374.687 140.532C374.142 138.851 375.064 137.043 376.746 136.497Z" fill="#1274E0"/>
<path d="M385.255 121.72C382.691 122.894 381.74 121.696 381.74 121.696C381.74 121.696 366.805 96.7571 365.231 94.7494C363.658 92.7444 336.088 80.9114 336.088 80.9114C336.088 80.9114 324.868 76.6218 324.423 69.8159C324.037 63.9021 327.394 60.2675 331.072 58.0761C335.454 55.464 340.998 55.8474 345.027 58.9788C354.072 66.0029 372 80.1312 374.886 83.9628C381.309 92.4888 388.426 119.22 388.426 119.22C388.426 119.22 387.268 120.799 385.255 121.72Z" fill="#1274E0"/>
<path d="M384.172 131.513C384.268 131.673 384.348 131.769 384.398 131.774C384.688 131.79 385.567 131.825 385.543 131.215C385.535 131.037 385.509 130.903 385.463 130.749L384.172 131.516V131.513Z" fill="#F0BA93"/>
<path d="M391.329 128.459C391.19 125.778 387.534 120.868 387.447 120.423C386.709 116.65 383.319 120.689 383.319 120.689C383.319 120.689 382.59 126.803 382.766 127.801C382.835 128.198 383.061 128.904 383.327 129.615C383.362 129.599 383.397 129.585 383.431 129.569C384.31 129.138 385.359 129.647 385.564 130.603L385.572 130.642C385.756 131.345 386.027 132.538 386.869 132.496C388.035 132.437 391.465 131.143 391.326 128.462L391.329 128.459Z" fill="#F0BA93"/>
<path d="M301.886 140.556L287.249 127.943C287.558 126.577 287.121 125.091 285.987 124.111C285.457 123.656 284.842 123.368 284.2 123.24L283.534 124.015L285.625 125.818L285.124 128.448L285.031 128.558L282.504 129.439L280.414 127.636L279.748 128.411C279.969 129.026 280.344 129.593 280.874 130.049C282.009 131.026 283.545 131.239 284.85 130.733L299.487 143.346C299.178 144.712 299.614 146.198 300.749 147.178C301.279 147.633 301.894 147.921 302.535 148.049L303.201 147.274L301.111 145.471L301.625 142.76L304.229 141.85L306.319 143.652L306.985 142.878C306.764 142.265 306.388 141.695 305.858 141.24C304.724 140.263 303.188 140.05 301.883 140.556H301.886Z" fill="#2F3133"/>
<path d="M288.44 134.344C288.44 134.344 289.319 135.132 292.375 131.947C295.429 128.76 290.317 130.065 290.317 130.065C290.317 130.065 287.471 133.824 288.442 134.344H288.44Z" fill="#F0BA93"/>
<path d="M457.449 251.92H0.551178C0.246771 251.92 0 252.167 0 252.472V252.743C0 253.048 0.246771 253.294 0.551178 253.294H457.449C457.753 253.294 458 253.048 458 252.743V252.472C458 252.167 457.753 251.92 457.449 251.92Z" fill="#464A4F"/>
</g>
<defs>
<clipPath id="clip0_167_1618">
<rect width="458" height="253.297" fill="white"/>
</clipPath>
</defs>
</svg>
