<svg width="500" height="300" viewBox="0 0 500 300" fill="none" xmlns="http://www.w3.org/2000/svg">
<path d="M469.338 297.532C469.338 297.532 530.769 231.617 479.726 160.256C434.438 96.937 381.636 101.267 342.898 126.962C326.398 137.905 278.828 128.31 238.34 63.8831C183.125 -23.9791 -8.26843 29.3089 26.6291 164.489C43.5176 229.907 -24.7679 232.284 10.0273 297.675L469.338 297.538V297.532Z" fill="#E6E6E6"/>
<path d="M411.468 232.669C411.468 232.669 374.962 201.875 358.324 211.684C341.685 221.493 374.466 265.698 374.466 265.698L387.504 261.973L372.603 234.283C382.537 246.948 399.548 261.973 399.548 261.973L411.468 232.669Z" fill="#464A4F"/>
<path d="M409.234 157.174C409.234 157.174 405.882 154.07 395.327 159.161C384.773 164.252 387.132 190.7 386.015 193.555C384.897 196.411 390.733 214.292 396.445 238.256C404.764 250.549 432.578 234.283 437.048 227.205C439.78 186.602 416.933 157.298 409.234 157.174Z" fill="#1274E0"/>
<path d="M407.497 156.429C407.497 156.429 401.91 148.11 400.792 147.365C396.694 151.214 390.362 152.952 390.362 152.952C390.362 152.952 392.1 163.382 390.362 168.97C395.577 173.812 407.497 156.429 407.497 156.429Z" fill="#D7A683"/>
<path d="M410.725 156.429C410.725 156.429 426.742 165.369 434.689 183.622C442.636 201.875 449.589 237.76 439.283 253.405C428.977 269.05 381.669 277.245 373.226 281.219C388.498 276.252 424.383 267.56 426.37 267.56C428.853 277.494 428.481 277.866 428.481 277.866C428.481 277.866 395.079 292.146 375.088 296.616C355.097 301.086 347.026 285.441 364.161 266.939C381.297 248.562 395.949 243.099 400.667 231.427C402.157 227.826 403.647 216.651 405.013 206.717C405.013 206.717 424.88 220.997 422.272 197.156C420.286 178.531 410.725 156.429 410.725 156.429Z" fill="#464A4F"/>
<path d="M406.502 271.409L410.6 286.931C410.6 286.931 429.101 278.86 430.715 279.232C432.33 279.605 432.826 289.041 432.33 289.166C431.833 289.29 422.769 291.401 422.52 297.485C424.631 299.347 434.813 298.975 439.159 297.485C443.505 295.995 444.622 269.671 440.773 262.966C435.806 260.234 432.95 262.593 427.984 265.325C423.265 267.933 406.502 271.409 406.502 271.409Z" fill="#2F3033"/>
<path d="M435.931 294.629C439.905 293.263 441.146 270.664 438.29 261.973C439.035 262.221 439.905 262.469 440.774 262.966C444.623 269.671 443.506 295.995 439.16 297.485C434.814 298.975 424.632 299.348 422.521 297.485C422.521 296.864 422.645 296.243 422.894 295.747C426.991 296.243 432.951 295.622 435.931 294.629Z" fill="#4F4F4F"/>
<path d="M395.204 242.23C395.204 242.23 390.734 214.416 384.649 202.868C392.969 202.123 397.19 197.405 397.936 197.653C398.681 198.025 393.465 172.943 396.818 165.866C400.171 158.788 406.379 153.573 410.477 156.305C414.574 159.036 416.437 162.513 416.437 162.513L417.058 169.467C417.058 169.467 412.463 157.298 405.882 160.154C400.916 162.265 396.321 175.923 402.53 194.176C408.614 212.429 410.352 230.434 410.601 230.93C410.849 231.427 395.204 242.23 395.204 242.23Z" fill="#464A4F"/>
<path d="M323.434 173.067C323.434 173.067 320.578 171.329 319.088 169.715C317.598 168.101 315.115 163.879 313.873 163.258C312.631 162.637 312.135 164.624 313.128 166.238C314.121 167.852 314.618 168.846 314.618 168.846C314.618 168.846 306.671 164.5 304.064 162.016C301.829 160.65 301.704 162.886 303.07 164.251C304.436 165.617 309.9 169.466 309.9 169.466C309.9 169.466 303.691 165.866 301.704 164.376C299.718 162.885 299.221 163.506 298.973 164.5C298.724 165.493 307.664 171.453 308.285 171.702C303.939 170.832 299.345 167.604 298.476 167.48C297.731 167.231 296.738 168.101 297.483 169.218C298.228 170.336 305.554 174.185 306.423 174.433C303.567 174.061 300.09 172.322 299.221 172.198C298.352 172.198 297.979 173.44 300.09 174.433C302.201 175.427 310.024 178.655 312.88 178.903C315.735 179.152 319.212 180.517 319.212 180.517L323.434 173.067Z" fill="#F0BA93"/>
<path d="M391.355 173.067C391.355 173.067 368.88 183.374 366.769 184.119C365.155 184.615 326.787 173.812 324.179 172.571C321.572 171.205 318.964 177.289 318.095 180.269C321.324 185.857 345.661 197.653 350.007 199.64C359.071 203.613 369.377 202.744 374.592 200.757C378.69 199.143 402.53 195.17 410.353 185.236C417.555 176.172 414.575 163.879 409.111 162.761C404.517 161.768 401.164 167.728 391.355 173.067Z" fill="#1274E0"/>
<path d="M389.74 126.132C389.74 126.132 385.394 130.105 384.525 131.968C383.656 133.954 384.152 136.189 382.662 137.059C381.172 137.928 380.055 138.549 379.434 139.169C378.937 139.79 379.806 142.398 380.427 142.895C379.806 144.881 379.31 150.345 379.558 152.331C379.806 154.318 386.015 155.436 391.602 154.939C397.19 154.442 398.928 148.855 400.667 146.62C402.405 144.385 409.855 144.757 407.62 136.189C405.633 127.622 391.727 124.269 389.74 126.132Z" fill="#F0BA93"/>
<path d="M380.552 144.509C380.552 144.509 381.172 145.875 386.388 146.123C382.911 149.6 379.062 151.586 380.552 144.509Z" fill="white"/>
<path d="M390.236 136.81C390.236 136.81 387.38 134.327 386.014 134.078C384.649 133.83 386.015 132.216 387.008 132.961C388.125 133.706 389.988 135.693 390.236 136.81Z" fill="#2F3033"/>
<path d="M407.745 136.189C406.627 131.595 402.033 128.491 397.811 126.877L396.694 131.471C396.694 131.471 396.445 135.569 397.563 137.307C396.818 139.294 396.073 141.032 395.328 142.522L397.811 143.391C398.308 141.404 399.301 142.274 400.791 141.529C402.529 140.659 405.385 140.535 406.13 143.888C407.745 142.274 408.738 140.039 407.745 136.189Z" fill="#2F3033"/>
<path d="M399.513 131.771C399.513 131.771 390.523 130.672 389.136 124.62C387.75 118.569 391.519 114.113 394.472 114.659C397.425 115.206 398.192 119.106 398.192 119.106C401.99 117.115 407.904 121.467 408.802 124.829C415.75 124.689 414.023 130.384 414.023 130.384C420.979 131.389 415.257 144.113 404.358 149.693C401.929 146.988 404.225 139.66 404.225 139.66L399.513 131.771Z" fill="#2F3033"/>
<path fill-rule="evenodd" clip-rule="evenodd" d="M395.328 126.877C396.073 133.21 398.184 131.595 398.184 131.595L402.282 140.163C402.282 140.163 401.788 144.066 401.394 147.962C402.224 148.915 403.572 150.768 404.789 152.497C414.171 146.226 419.467 133.133 413.208 131.595C413.208 131.595 415.568 125.884 408.49 125.387C407.869 121.786 403.399 119.923 399.301 121.662C399.301 121.662 402.157 124.766 399.177 124.021C398.469 123.814 397.83 123.502 397.28 123.234C395.518 122.372 394.666 121.956 395.328 126.877Z" fill="#2F3033"/>
<path d="M385.518 137.928C385.394 138.673 385.518 139.294 386.015 139.418C386.512 139.542 386.884 139.045 387.133 138.3C387.257 137.555 387.133 136.934 386.636 136.81C386.139 136.686 385.643 137.183 385.518 137.928Z" fill="#2F3033"/>
<path d="M397.314 148.358C397.314 148.358 398.68 150.22 401.412 147.985C404.143 145.75 404.392 143.143 403.523 141.653C402.653 140.163 400.046 140.039 398.556 141.404C397.066 142.646 395.7 146.371 397.314 148.358Z" fill="#F0BA93"/>
<path d="M342.676 292.642V91.4887L311.758 71.9941C311.758 71.9941 271.528 151.09 276.991 200.757C282.454 250.301 310.392 299.472 310.392 299.472L342.676 292.642Z" fill="#9A9DA0"/>
<path d="M164.867 90.371L311.759 72.1182C311.759 72.1182 321.196 127.622 331.998 298.727L164.867 298.354C164.867 298.478 145.248 161.272 164.867 90.371Z" fill="#ACB0B5"/>
<path d="M230.303 255.143C265.346 255.143 293.753 223.956 293.753 185.484C293.753 147.013 265.346 115.826 230.303 115.826C195.26 115.826 166.853 147.013 166.853 185.484C166.853 223.956 195.26 255.143 230.303 255.143Z" fill="#CCCCCC"/>
<path d="M228.068 255.143C261.807 255.143 289.159 223.956 289.159 185.484C289.159 147.013 261.807 115.826 228.068 115.826C194.328 115.826 166.977 147.013 166.977 185.484C166.977 223.956 194.328 255.143 228.068 255.143Z" fill="#E0E0E0"/>
<path d="M226.577 236.021C251.676 236.021 272.023 213.395 272.023 185.485C272.023 157.574 251.676 134.948 226.577 134.948C201.478 134.948 181.131 157.574 181.131 185.485C181.131 213.395 201.478 236.021 226.577 236.021Z" fill="#9A9DA0"/>
<path d="M230.923 229.44C251.908 229.44 268.919 209.761 268.919 185.484C268.919 161.208 251.908 141.529 230.923 141.529C209.939 141.529 192.928 161.208 192.928 185.484C192.928 209.761 209.939 229.44 230.923 229.44Z" fill="#7F8184"/>
<path d="M235.642 224.349C252.923 224.349 266.933 206.782 266.933 185.112C266.933 163.442 252.923 145.875 235.642 145.875C218.361 145.875 204.352 163.442 204.352 185.112C204.352 206.782 218.361 224.349 235.642 224.349Z" fill="#626466"/>
<path d="M159.031 121.786L308.655 107.631C308.655 107.258 308.655 106.886 308.779 106.513L159.155 120.668C159.031 121.041 159.031 121.413 159.031 121.786Z" fill="#9A9DA0"/>
<path d="M237.629 96.207C237.256 100.429 234.028 103.657 230.303 103.409C226.702 103.16 223.97 99.5595 224.343 95.3378C224.715 91.1161 227.944 87.8876 231.669 88.136C235.27 88.3843 238.001 91.9852 237.629 96.207Z" fill="#9A9FA0"/>
<path d="M235.145 96.0829C234.773 100.305 231.544 103.533 227.819 103.285C224.218 103.036 221.487 99.4355 221.859 95.2138C222.232 90.992 225.46 87.7636 229.185 88.012C232.91 88.2603 235.518 91.8612 235.145 96.0829Z" fill="#E0E0E0"/>
<path d="M227.944 91.6129C227.696 91.6129 227.447 91.3645 227.447 91.1162V89.1295C227.447 88.8812 227.696 88.6328 227.944 88.6328C228.192 88.6328 228.441 88.8812 228.441 89.1295V91.1162C228.316 91.3645 228.068 91.6129 227.944 91.6129Z" fill="#7F8384"/>
<path d="M255.758 83.2935L284.689 79.9409C286.303 79.6926 287.669 81.0585 287.545 82.6727L286.551 97.4488C286.427 98.6905 285.434 99.6838 284.192 99.808L255.137 103.036C253.522 103.161 252.157 101.919 252.281 100.18L253.522 85.5285C253.522 84.411 254.516 83.4177 255.758 83.2935Z" fill="#CCCCCC"/>
<path d="M255.013 83.0452L283.944 79.6926C285.558 79.4443 286.924 80.8101 286.8 82.4243L285.807 97.2005C285.683 98.4422 284.689 99.4355 283.448 99.5597L254.392 102.788C252.778 102.912 251.412 101.671 251.536 99.9322L252.778 85.2802C252.902 84.1627 253.771 83.1693 255.013 83.0452Z" fill="#E0E0E0"/>
<path d="M297.851 78.2026L294.126 78.5752C293.505 78.6993 293.009 79.196 292.884 79.8169L292.76 82.9211C292.76 83.6661 293.381 84.4111 294.25 84.2869L297.975 83.9144C298.596 83.9144 299.217 83.2936 299.217 82.6727L299.341 79.5685C299.465 78.8235 298.72 78.2026 297.851 78.2026Z" fill="#7F8184"/>
<path d="M292.637 89.7503L292.389 97.5729C292.389 98.4421 293.01 99.0629 293.879 98.9388L297.48 98.5662C298.1 98.4421 298.597 97.9454 298.721 97.3245L299.094 89.6261C299.094 88.8811 298.473 88.1361 297.604 88.2602L294.003 88.5086C293.258 88.6327 292.637 89.1294 292.637 89.7503Z" fill="#7F8184"/>
<path d="M210.437 88.7569L205.719 89.2536C205.346 89.2536 204.974 89.6261 204.974 90.1228L204.85 94.0962C204.85 94.5929 205.222 94.9654 205.719 94.9654L210.313 94.5929C210.686 94.5929 211.058 94.2204 211.058 93.7237L211.182 89.6261C211.431 89.0053 210.934 88.6328 210.437 88.7569Z" fill="#7F8184"/>
<path d="M204.725 100.057L204.352 108.5C204.352 109.121 204.849 109.618 205.47 109.493L209.815 108.997C210.312 108.997 210.685 108.5 210.685 108.003L211.057 99.5599C211.057 98.939 210.561 98.4423 209.94 98.5665L205.594 98.939C205.097 99.0632 204.725 99.5599 204.725 100.057Z" fill="#7F8184"/>
<path d="M122.773 38.22C122.773 38.22 118.8 40.455 109.239 47.9052C99.678 55.4795 85.2744 78.4507 106.88 79.9407C128.485 81.5549 122.773 38.22 122.773 38.22Z" fill="#1274E0"/>
<path d="M108.991 135.444C108.991 135.444 107.377 177.662 106.384 186.975C105.39 196.287 80.6806 283.081 80.6806 283.081L70.7471 281.219C70.7471 281.219 73.1063 216.03 86.144 194.797C90.1174 173.689 70.9954 151.09 76.3347 127.125C90.2416 127.001 108.991 135.444 108.991 135.444Z" fill="#464A4F"/>
<path d="M117.559 132.588C117.559 132.588 124.637 174.309 125.63 183.622C126.623 192.934 124.14 282.833 124.14 282.833L114.082 283.081C114.082 283.081 99.3061 223.48 107.377 195.418C106.88 174.061 83.5367 155.808 83.9092 131.222C97.4436 128.118 117.559 132.588 117.559 132.588Z" fill="#464A4F"/>
<path d="M153.196 18.6013C153.196 18.6013 150.464 25.3064 144.876 29.1557C148.353 33.2533 149.471 39.4617 151.706 40.3309C153.196 40.9517 156.424 36.73 156.424 36.73L153.196 18.6013Z" fill="#D7A683"/>
<path d="M174.926 15.2489C174.926 15.2489 175.174 20.9607 174.305 22.8232C173.56 24.6857 171.573 25.9274 171.946 27.5416C172.318 29.1558 172.567 32.3842 172.443 33.1292C172.318 33.8742 170.083 33.1292 169.338 33.005C168.345 34.7434 164.992 38.841 163.378 39.9585C161.764 41.076 158.039 37.5993 154.562 33.3776C151.085 29.1558 151.955 24.9341 152.327 22.2023C152.7 19.4706 148.105 13.7588 155.556 9.41293C163.13 5.19119 174.926 12.5172 174.926 15.2489Z" fill="#F0BA93"/>
<path d="M158.908 30.0249C158.411 28.2865 158.535 26.424 158.535 26.2998C158.659 25.8031 159.653 21.8297 161.763 17.3596C163.75 16.9871 166.482 14.0071 166.482 14.0071L168.965 10.0337C164.992 8.17112 159.777 7.05359 155.803 9.41281C152.451 11.3995 151.582 13.6346 151.582 15.7454C154.437 14.0071 157.914 14.3796 158.535 16.2421C159.156 18.4771 158.038 21.2089 155.927 23.3197C154.81 24.5614 153.32 25.1823 152.202 26.0514C152.202 28.2865 153.32 29.7765 154.437 32.8807C154.81 33.8741 156.797 36.6058 158.411 37.2267C160.398 33.9983 159.28 34.3708 158.908 30.0249Z" fill="#2F3033"/>
<path d="M167.475 35.4882L162.756 32.6323C162.756 37.3507 164.867 40.7033 167.475 35.4882Z" fill="white"/>
<path d="M165.489 13.138C165.489 13.138 173.063 18.1047 178.03 14.3797C182.997 10.6546 182.997 4.81865 180.389 3.32862C177.781 1.8386 174.677 4.32196 174.677 4.32196C173.063 0.348552 165.737 -0.148124 162.881 1.83858C157.666 -2.75567 155.307 2.70778 155.307 2.70778C149.347 -1.01729 145.498 12.393 150.216 23.6923C153.817 23.1957 156.797 16.118 156.797 16.118L165.489 13.138Z" fill="#2F3033"/>
<path d="M169.71 26.1758C169.337 26.7966 168.716 27.0449 168.344 26.7966C167.971 26.5483 167.971 25.9274 168.344 25.3066C168.716 24.6857 169.337 24.4374 169.71 24.6857C170.082 24.9341 170.082 25.5549 169.71 26.1758Z" fill="#2F3033"/>
<path d="M155.183 23.1954C155.183 23.1954 152.948 23.5679 152.575 20.0912C152.203 16.6144 153.941 14.7519 155.555 14.3794C157.17 14.0069 159.032 15.7452 159.156 17.6078C159.405 19.4703 157.666 22.947 155.183 23.1954Z" fill="#F0BA93"/>
<path d="M165.736 22.4504C165.736 22.4504 168.841 20.0912 172.69 22.5746C173.186 22.6988 174.056 21.2087 172.814 20.4637C171.696 19.8429 167.723 19.8429 165.736 22.4504Z" fill="#2F3033"/>
<path d="M156.3 46.2912C156.3 46.2912 155.183 37.5994 151.209 31.7634C147.112 25.9275 144.753 26.1758 142.766 28.2867C140.779 30.3976 137.923 33.626 137.923 33.626L156.3 46.2912Z" fill="#464A4F"/>
<path d="M122.775 38.2202C122.775 38.2202 133.826 30.8943 143.387 33.7501C152.948 36.606 153.941 42.5661 156.176 44.3045C158.411 46.0429 156.797 59.0806 154.438 67.1516C153.693 69.635 150.837 79.941 142.269 96.828C133.081 114.957 116.566 144.509 116.566 144.509C116.566 144.509 95.5819 132.589 87.3867 123.773C105.515 84.6594 116.815 46.2912 122.775 38.2202Z" fill="#1274E0"/>
<path d="M153.817 79.941C157.666 70.6283 157.914 51.7547 157.914 51.7547C157.914 51.7547 159.156 43.932 152.327 40.2069C145.497 36.4819 140.779 42.0695 135.688 40.8278C130.597 39.4619 136.806 33.2535 136.806 33.2535C136.061 32.3843 132.956 33.8743 131.715 34.2468C130.473 34.6193 118.801 43.187 104.398 70.38C98.6858 81.3069 98.3133 91.9854 93.9673 100.801C87.5105 113.963 79.5637 111.852 75.5903 131.968C90.6148 153.449 113.586 151.959 113.586 151.959C113.586 151.959 149.968 89.1295 153.817 79.941ZM137.551 103.906C134.571 107.258 119.67 102.788 119.794 96.4555C119.919 90.247 132.336 54.1139 139.041 47.7812C145.622 41.4486 154.313 47.1604 155.803 51.3822C157.169 55.7281 153.568 66.2824 153.568 66.2824C151.085 78.0785 140.531 100.677 137.551 103.906Z" fill="#464A4F"/>
<path d="M204.727 103.657C204.727 103.657 207.21 103.409 209.073 102.291C210.936 101.298 214.661 98.318 216.026 98.1938C217.392 98.0696 217.144 100.056 215.654 101.174C214.164 102.291 213.419 103.036 213.419 103.036C213.419 103.036 222.111 101.671 225.339 100.305C227.822 99.808 227.202 101.795 225.463 102.664C223.725 103.409 217.516 105.147 217.516 105.147C217.516 105.147 224.47 104.03 226.705 103.285C228.94 102.54 229.188 103.285 229.188 104.278C229.188 105.271 218.882 107.755 218.261 107.755C222.607 108.5 227.822 107.01 228.568 107.134C229.313 107.258 229.933 108.251 228.816 108.997C227.698 109.742 219.876 110.859 218.882 110.735C221.614 111.356 225.339 110.859 226.208 111.107C226.953 111.356 226.829 112.722 224.594 112.846C222.359 113.094 214.164 113.342 211.432 112.597C208.7 111.852 205.1 111.977 205.1 111.977L204.727 103.657Z" fill="#F0BA93"/>
<path d="M156.3 52.1271C156.3 52.1271 168.096 80.5618 171.697 86.1494C176.788 94.3445 205.098 100.553 207.209 103.036C209.32 105.52 208.327 110.983 205.471 112.846C200.256 113.715 189.329 111.232 185.355 110.238C183.245 109.617 173.187 107.382 168.22 105.147C163.253 102.912 157.045 95.7104 155.058 92.6062C150.216 85.0319 135.936 71.4975 135.191 59.3289C134.694 53.6171 148.601 38.9652 156.3 52.1271Z" fill="#1274E0"/>
<path d="M106.383 255.392L126.747 254.15C126.747 254.15 127.989 280.846 128.361 283.95C128.858 287.055 138.791 289.29 145.248 291.525C151.705 293.636 151.208 297.982 148.725 298.851C146.242 299.72 113.958 299.472 111.723 299.596C107.004 299.72 110.108 293.263 111.102 286.806C112.095 280.35 106.383 255.392 106.383 255.392Z" fill="#2F3033"/>
<path d="M148.725 295.498C146.242 296.367 114.082 296.988 111.971 297.112C110.605 297.112 109.86 296.492 109.612 295.498C109.239 298.478 109.363 299.596 111.847 299.596C113.958 299.596 146.366 299.844 148.849 298.851C150.339 298.354 151.208 296.367 149.967 294.505C149.594 295.002 149.222 295.25 148.725 295.498Z" fill="#4F4F4F"/>
<path d="M70.0018 255.392L89.7447 257.875C89.7447 257.875 83.0395 281.467 83.412 284.571C83.9087 287.676 94.0906 289.911 100.547 292.146C107.004 294.257 106.507 298.602 104.024 299.472C102.782 299.968 96.574 299.347 87.8821 299.596C79.1903 299.844 68.6359 297.609 67.5184 297.609C62.8 297.733 65.78 290.407 66.6492 283.95C67.6426 277.494 70.0018 255.392 70.0018 255.392Z" fill="#2F3033"/>
<path d="M104.025 296.367C102.783 296.864 96.6987 297.112 88.0068 297.361C79.315 297.609 68.6365 294.505 67.519 294.505C66.1531 294.505 65.4081 293.884 65.0356 292.766C64.6631 295.622 65.0356 297.609 67.519 297.485C68.6365 297.485 79.1908 299.72 87.8827 299.471C96.5745 299.223 102.783 299.844 104.025 299.347C105.515 298.851 106.26 296.988 105.266 295.25C105.018 295.746 104.645 296.119 104.025 296.367Z" fill="#4F4F4F"/>
<path d="M306.171 237.511C306.171 235.773 306.916 234.159 308.158 233.041V237.76L312.131 239.995L316.105 237.76V233.041C317.347 234.159 318.092 235.773 318.092 237.511C318.092 239.871 316.726 241.981 314.615 242.851V263.587H308.531V242.23C307.165 241.236 306.171 239.498 306.171 237.511Z" fill="#E0E0E0"/>
<path d="M320.201 237.636C320.201 235.276 321.319 233.166 322.933 231.676V238.008L328.272 241.112L333.611 238.008V231.676C335.226 233.166 336.343 235.276 336.343 237.636C336.343 240.864 334.481 243.596 331.749 244.837V272.775H323.554V244.092C321.567 242.727 320.201 240.367 320.201 237.636Z" fill="#E0E0E0"/>
<path d="M338.33 242.727C338.33 241.733 338.702 240.988 339.447 240.367V242.851L341.558 244.093L343.669 242.851V240.367C344.29 240.988 344.786 241.733 344.786 242.727C344.786 243.968 344.041 245.086 342.924 245.583V256.509H339.571V245.21C338.826 244.589 338.33 243.72 338.33 242.727Z" fill="#E0E0E0"/>
<path d="M369.62 256.137C369.745 256.137 369.869 256.137 370.117 256.013C370.738 255.764 370.986 255.144 370.738 254.523L360.556 231.8C359.314 228.944 356.707 227.081 353.975 227.081H311.882C309.274 227.081 306.915 228.696 305.549 231.179L293.381 254.398C293.132 254.895 293.257 255.64 293.877 255.889C294.374 256.137 295.119 256.013 295.367 255.392L307.536 232.172C308.529 230.31 310.143 229.192 311.882 229.192H353.975C355.838 229.192 357.576 230.434 358.569 232.545L368.751 255.268C368.875 255.889 369.248 256.137 369.62 256.137Z" fill="#CCCCCC"/>
<path d="M280.941 297.327L384.25 297.327L384.25 251.385L280.941 251.385L280.941 297.327Z" fill="#C6823E"/>
<path d="M291.619 290.849L373.447 290.849L373.447 259.31L291.619 259.31L291.619 290.849Z" fill="#AD6525"/>
<path d="M377.815 256.137C378.063 256.137 378.188 256.137 378.436 256.012C379.057 255.64 379.305 254.895 378.933 254.274L366.764 231.551C365.274 228.695 362.294 226.833 358.941 226.833H308.405C305.3 226.833 302.569 228.323 300.954 230.93L286.178 254.274C285.806 254.895 285.93 255.64 286.551 256.012C287.172 256.385 287.917 256.261 288.289 255.64L302.941 232.42C304.059 230.558 306.169 229.44 308.28 229.44H358.817C361.176 229.44 363.287 230.682 364.405 232.793L376.573 255.516C376.946 256.012 377.318 256.137 377.815 256.137Z" fill="#E0E0E0"/>
<path d="M500 296.875H0V298.475H500V296.875Z" fill="#464A4F"/>
</svg>
