<svg width="17" height="12" viewBox="0 0 17 12" fill="none" xmlns="http://www.w3.org/2000/svg">
<path d="M16.6451 1.85088C16.4432 1.12674 15.8841 0.558818 15.1641 0.358057C13.8382 1.71175e-05 8.50812 1.7204e-05 8.50812 1.7204e-05C8.50812 1.7204e-05 3.18814 -0.00857157 1.84845 0.358057C1.13211 0.559354 0.570402 1.12674 0.370591 1.85088C0.119233 3.22345 -0.00564946 4.61267 0.000196087 6.00833C-0.00246098 7.39486 0.12189 8.78193 0.370591 10.1459C0.570402 10.8701 1.13211 11.438 1.84845 11.642C3.17433 12 8.50812 12 8.50812 12C8.50812 12 13.8249 12 15.1641 11.642C15.8841 11.438 16.4432 10.8706 16.6451 10.1459C16.889 8.78193 17.0081 7.39486 16.9996 6.00833C17.0081 4.61267 16.8917 3.22345 16.6451 1.85088ZM6.80547 8.57795V3.42743L11.2422 6.00833L6.80547 8.57795Z" fill="#9E9E9E"/>
</svg>
