<svg width="14" height="12" viewBox="0 0 14 12" fill="none" xmlns="http://www.w3.org/2000/svg">
<path d="M3.94569 11.9954C5.09502 12.0325 6.24041 11.8469 7.31415 11.4497C8.38789 11.0525 9.3682 10.4516 10.1971 9.68266C11.0261 8.9137 11.6868 7.99224 12.1404 6.97273C12.5939 5.95322 12.831 4.85635 12.8376 3.74694C13.3643 3.11812 13.7554 2.39407 13.9879 1.61734C14.0053 1.55598 14.0039 1.49108 13.9839 1.43046C13.9639 1.36984 13.9262 1.31609 13.8753 1.27568C13.8243 1.23527 13.7624 1.20993 13.6969 1.20269C13.6314 1.19546 13.5651 1.20665 13.506 1.23492C13.2305 1.36288 12.9203 1.40422 12.6191 1.3531C12.3179 1.30198 12.0409 1.16098 11.8271 0.949971C11.5543 0.66171 11.2242 0.429218 10.8565 0.266272C10.4888 0.103326 10.091 0.0132403 9.68652 0.00135285C9.28207 -0.0105346 8.87926 0.0560182 8.50196 0.197068C8.12467 0.338117 7.78055 0.550793 7.49001 0.822495C7.0922 1.19417 6.80083 1.6588 6.6442 2.17124C6.48757 2.68368 6.47102 3.2265 6.59616 3.74694C3.99232 3.89691 2.20462 2.70464 0.77445 1.06995C0.731485 1.02301 0.675282 0.989153 0.612703 0.972519C0.550125 0.955884 0.48388 0.957189 0.422058 0.976275C0.360236 0.99536 0.305512 1.0314 0.264569 1.07999C0.223627 1.12859 0.198237 1.18763 0.191502 1.24991C-0.080953 2.70795 0.115586 4.21151 0.754721 5.55864C1.39386 6.90578 2.44498 8.03197 3.76692 8.78597C2.88055 9.76665 1.63582 10.3792 0.292546 10.4956C0.220581 10.5072 0.154148 10.5401 0.102545 10.5898C0.0509421 10.6396 0.0167519 10.7036 0.00475931 10.7731C-0.00723328 10.8425 0.00357206 10.9138 0.035663 10.977C0.067754 11.0402 0.119525 11.0921 0.183729 11.1255C1.35236 11.6889 2.63929 11.9865 3.94569 11.9954Z" fill="#9E9E9E"/>
</svg>
