<svg width="8" height="14" viewBox="0 0 8 14" fill="none" xmlns="http://www.w3.org/2000/svg">
<path d="M8 0.393359C8 0.290253 7.96169 0.19137 7.89349 0.118463C7.8253 0.0455561 7.73281 0.00459735 7.63636 0.00459735H5.81818C4.90264 -0.0441604 4.00625 0.296473 3.32489 0.95207C2.64352 1.60767 2.23257 2.52493 2.18182 3.50345V5.60276H0.363636C0.267194 5.60276 0.174702 5.64372 0.106507 5.71662C0.0383116 5.78953 0 5.88841 0 5.99152V8.01308C0 8.11618 0.0383116 8.21507 0.106507 8.28797C0.174702 8.36088 0.267194 8.40184 0.363636 8.40184H2.18182V13.6112C2.18182 13.7143 2.22013 13.8132 2.28832 13.8861C2.35652 13.959 2.44901 14 2.54545 14H4.72727C4.82372 14 4.91621 13.959 4.9844 13.8861C5.0526 13.8132 5.09091 13.7143 5.09091 13.6112V8.40184H6.99636C7.07723 8.40308 7.15617 8.37547 7.22072 8.32337C7.28526 8.27126 7.33171 8.19765 7.35273 8.11416L7.87636 6.0926C7.89083 6.03516 7.89278 5.97493 7.88205 5.91656C7.87132 5.85819 7.8482 5.80323 7.81448 5.75591C7.78076 5.70859 7.73733 5.67018 7.68754 5.64362C7.63774 5.61707 7.58292 5.60309 7.52727 5.60276H5.09091V3.50345C5.109 3.31099 5.19354 3.13266 5.32802 3.00326C5.4625 2.87387 5.63726 2.80271 5.81818 2.80368H7.63636C7.73281 2.80368 7.8253 2.76272 7.89349 2.68981C7.96169 2.61691 8 2.51802 8 2.41492V0.393359Z" fill="#9E9E9E"/>
</svg>
