<svg viewBox="0 0 23 37" fill="none" xmlns="http://www.w3.org/2000/svg">
<path fill-rule="evenodd" clip-rule="evenodd" d="M19.2779 34.6111V33.8611H17.0557V34.6111H16.3057C16.3057 35.639 17.1389 36.4722 18.1668 36.4722C19.1946 36.4722 20.0279 35.639 20.0279 34.6111H19.2779Z" fill="#464646"/>
<path fill-rule="evenodd" clip-rule="evenodd" d="M5.94439 34.6111V33.8611H3.72217V34.6111H2.97217C2.97217 35.639 3.80542 36.4722 4.83328 36.4722C5.86114 36.4722 6.69439 35.639 6.69439 34.6111H5.94439Z" fill="#464646"/>
<path fill-rule="evenodd" clip-rule="evenodd" d="M0.75 1.27777C0.75 0.863557 1.08579 0.527771 1.5 0.527771H21.5C21.9142 0.527771 22.25 0.863557 22.25 1.27777V34.3408C22.25 34.755 21.9142 35.0908 21.5 35.0908H1.5C1.08579 35.0908 0.75 34.755 0.75 34.3408V1.27777ZM2.25 2.02777V33.5908H20.75V2.02777H2.25Z" fill="#464646"/>
<path fill-rule="evenodd" clip-rule="evenodd" d="M0.75 1.27777C0.75 0.863557 1.08579 0.527771 1.5 0.527771H21.5C21.9142 0.527771 22.25 0.863557 22.25 1.27777V11.3679C22.25 11.7821 21.9142 12.1179 21.5 12.1179H1.5C1.08579 12.1179 0.75 11.7821 0.75 11.3679V1.27777ZM2.25 2.02777V10.6179H20.75V2.02777H2.25Z" fill="#464646"/>
<path fill-rule="evenodd" clip-rule="evenodd" d="M4.96851 3.54578C5.38272 3.54578 5.71851 3.88156 5.71851 4.29578V8.34983C5.71851 8.76404 5.38272 9.09983 4.96851 9.09983C4.55429 9.09983 4.21851 8.76404 4.21851 8.34983V4.29578C4.21851 3.88156 4.55429 3.54578 4.96851 3.54578Z" fill="#464646"/>
<path fill-rule="evenodd" clip-rule="evenodd" d="M4.96851 13.6359C5.38272 13.6359 5.71851 13.9717 5.71851 14.3859L5.71851 20.512C5.71851 20.9262 5.38272 21.262 4.96851 21.262C4.55429 21.262 4.21851 20.9262 4.21851 20.512L4.21851 14.3859C4.21851 13.9717 4.55429 13.6359 4.96851 13.6359Z" fill="#464646"/>
</svg>
