<svg viewBox="0 0 29 33" fill="none" xmlns="http://www.w3.org/2000/svg">
<path fill-rule="evenodd" clip-rule="evenodd" d="M0.189941 1.28363C0.189941 0.836282 0.552591 0.473633 0.999941 0.473633H27.9999C28.4473 0.473633 28.8099 0.836282 28.8099 1.28363V30.5104C28.8099 30.9578 28.4473 31.3204 27.9999 31.3204H0.999941C0.552591 31.3204 0.189941 30.9578 0.189941 30.5104V1.28363ZM1.80994 2.09363V29.7004H27.1899V2.09363H1.80994Z" fill="#464646"/>
<path fill-rule="evenodd" clip-rule="evenodd" d="M0.189941 1.28363C0.189941 0.836282 0.552591 0.473633 0.999941 0.473633H27.9999C28.4473 0.473633 28.8099 0.836282 28.8099 1.28363V9.3558C28.8099 9.80315 28.4473 10.1658 27.9999 10.1658H0.999941C0.552591 10.1658 0.189941 9.80315 0.189941 9.3558V1.28363ZM1.80994 2.09363V8.5458H27.1899V2.09363H1.80994Z" fill="#464646"/>
<path fill-rule="evenodd" clip-rule="evenodd" d="M4.36523 12.7211H24.6347V27.1452H4.36523V12.7211ZM5.98523 14.3411V25.5252H23.0147V14.3411H5.98523Z" fill="#464646"/>
<path fill-rule="evenodd" clip-rule="evenodd" d="M9.65381 16.3146C9.65381 15.8672 10.0165 15.5046 10.4638 15.5046L18.2576 15.5046C18.705 15.5046 19.0676 15.8672 19.0676 16.3146C19.0676 16.7619 18.705 17.1246 18.2576 17.1246L10.4638 17.1246C10.0165 17.1246 9.65381 16.7619 9.65381 16.3146Z" fill="#464646"/>
<path fill-rule="evenodd" clip-rule="evenodd" d="M25.123 30.5104V29.7004H22.7111V30.5104H21.9011C21.9011 31.6238 22.8037 32.5264 23.9171 32.5264C25.0305 32.5264 25.9331 31.6238 25.9331 30.5104H25.123Z" fill="#464646"/>
<path fill-rule="evenodd" clip-rule="evenodd" d="M6.47364 30.5104V29.7004H4.06171V30.5104H3.25171C3.25171 31.6238 4.15429 32.5264 5.26767 32.5264C6.38106 32.5264 7.28364 31.6238 7.28364 30.5104H6.47364Z" fill="#464646"/>
<path fill-rule="evenodd" clip-rule="evenodd" d="M6.29951 4.61312C5.90927 4.22288 5.27656 4.22288 4.88631 4.61312C4.49607 5.00336 4.49607 5.63607 4.88631 6.02631C5.27656 6.41656 5.90927 6.41656 6.29951 6.02631C6.68975 5.63607 6.68975 5.00336 6.29951 4.61312ZM3.7408 3.46761C4.76369 2.44472 6.42213 2.44472 7.44502 3.46761C8.46791 4.4905 8.46791 6.14894 7.44502 7.17183C6.42213 8.19472 4.76369 8.19472 3.7408 7.17183C2.71791 6.14894 2.71791 4.4905 3.7408 3.46761Z" fill="#464646"/>
<path fill-rule="evenodd" clip-rule="evenodd" d="M24.1137 6.02631C24.5039 5.63607 24.5039 5.00336 24.1137 4.61312C23.7234 4.22288 23.0907 4.22288 22.7005 4.61312C22.3103 5.00336 22.3103 5.63607 22.7005 6.02631C23.0907 6.41656 23.7234 6.41656 24.1137 6.02631ZM25.2592 3.46761C26.2821 4.4905 26.2821 6.14894 25.2592 7.17183C24.2363 8.19472 22.5779 8.19472 21.555 7.17183C20.5321 6.14893 20.5321 4.4905 21.555 3.46761C22.5779 2.44472 24.2363 2.44472 25.2592 3.46761Z" fill="#464646"/>
<path fill-rule="evenodd" clip-rule="evenodd" d="M15.2065 4.61312C14.8162 4.22288 14.1835 4.22288 13.7933 4.61312C13.4031 5.00336 13.4031 5.63607 13.7933 6.02631C14.1835 6.41656 14.8162 6.41656 15.2065 6.02631C15.5967 5.63607 15.5967 5.00336 15.2065 4.61312ZM12.6478 3.46761C13.6707 2.44472 15.3291 2.44472 16.352 3.46761C17.3749 4.4905 17.3749 6.14894 16.352 7.17183C15.3291 8.19472 13.6707 8.19472 12.6478 7.17183C11.6249 6.14894 11.6249 4.4905 12.6478 3.46761Z" fill="#464646"/>
</svg>
