<svg viewBox="0 0 29 31" fill="none" xmlns="http://www.w3.org/2000/svg">
<path fill-rule="evenodd" clip-rule="evenodd" d="M0.235107 1.45457C0.235107 1.03208 0.577608 0.689575 1.0001 0.689575H28.0001C28.4226 0.689575 28.7651 1.03208 28.7651 1.45457V24.5C28.7651 24.9225 28.4226 25.265 28.0001 25.265H1.0001C0.577608 25.265 0.235107 24.9225 0.235107 24.5V1.45457ZM1.7651 2.21957V23.735H27.2351V2.21957H1.7651Z" fill="#464646"/>
<path fill-rule="evenodd" clip-rule="evenodd" d="M0.235107 24.5C0.235107 24.0775 0.577608 23.735 1.0001 23.735H28.0001C28.4226 23.735 28.7651 24.0775 28.7651 24.5V29.5455C28.7651 29.968 28.4226 30.3105 28.0001 30.3105H1.0001C0.577608 30.3105 0.235107 29.968 0.235107 29.5455V24.5ZM1.7651 25.265V28.7805H27.2351V25.265H1.7651Z" fill="#464646"/>
<path fill-rule="evenodd" clip-rule="evenodd" d="M20.7048 5.76498C19.4327 5.76498 18.4016 6.79615 18.4016 8.06816C18.4016 9.34018 19.4327 10.3713 20.7048 10.3713C21.9768 10.3713 23.0079 9.34018 23.0079 8.06816C23.0079 6.79615 21.9768 5.76498 20.7048 5.76498ZM16.8716 8.06816C16.8716 5.95116 18.5878 4.23499 20.7048 4.23499C22.8218 4.23499 24.5379 5.95116 24.5379 8.06816C24.5379 10.1852 22.8218 11.9013 20.7048 11.9013C18.5878 11.9013 16.8716 10.1852 16.8716 8.06816Z" fill="#464646"/>
<path fill-rule="evenodd" clip-rule="evenodd" d="M20.7048 15.5832C19.4327 15.5832 18.4016 16.6144 18.4016 17.8864C18.4016 19.1584 19.4327 20.1896 20.7048 20.1896C21.9768 20.1896 23.0079 19.1584 23.0079 17.8864C23.0079 16.6144 21.9768 15.5832 20.7048 15.5832ZM16.8716 17.8864C16.8716 15.7694 18.5878 14.0532 20.7048 14.0532C22.8218 14.0532 24.5379 15.7694 24.5379 17.8864C24.5379 20.0034 22.8218 21.7195 20.7048 21.7195C18.5878 21.7195 16.8716 20.0034 16.8716 17.8864Z" fill="#464646"/>
<path fill-rule="evenodd" clip-rule="evenodd" d="M8.29583 5.76498C7.02381 5.76498 5.99264 6.79615 5.99264 8.06816C5.99264 9.34018 7.02381 10.3713 8.29583 10.3713C9.56784 10.3713 10.599 9.34018 10.599 8.06816C10.599 6.79615 9.56784 5.76498 8.29583 5.76498ZM4.46265 8.06816C4.46265 5.95116 6.17882 4.23499 8.29583 4.23499C10.4128 4.23499 12.129 5.95116 12.129 8.06816C12.129 10.1852 10.4128 11.9013 8.29583 11.9013C6.17882 11.9013 4.46265 10.1852 4.46265 8.06816Z" fill="#464646"/>
<path fill-rule="evenodd" clip-rule="evenodd" d="M8.29583 15.5832C7.02381 15.5832 5.99264 16.6144 5.99264 17.8864C5.99264 19.1584 7.02381 20.1896 8.29583 20.1896C9.56784 20.1896 10.599 19.1584 10.599 17.8864C10.599 16.6144 9.56784 15.5832 8.29583 15.5832ZM4.46265 17.8864C4.46265 15.7694 6.17882 14.0532 8.29583 14.0532C10.4128 14.0532 12.129 15.7694 12.129 17.8864C12.129 20.0034 10.4128 21.7195 8.29583 21.7195C6.17882 21.7195 4.46265 20.0034 4.46265 17.8864Z" fill="#464646"/>
<path fill-rule="evenodd" clip-rule="evenodd" d="M4.46265 27.091C4.46265 26.6685 4.80515 26.326 5.22764 26.326H6.86401C7.2865 26.326 7.629 26.6685 7.629 27.091C7.629 27.5135 7.2865 27.856 6.86401 27.856H5.22764C4.80515 27.856 4.46265 27.5135 4.46265 27.091Z" fill="#464646"/>
<path fill-rule="evenodd" clip-rule="evenodd" d="M10.0532 27.091C10.0532 26.6685 10.3957 26.326 10.8182 26.326H12.4546C12.8771 26.326 13.2196 26.6685 13.2196 27.091C13.2196 27.5135 12.8771 27.856 12.4546 27.856H10.8182C10.3957 27.856 10.0532 27.5135 10.0532 27.091Z" fill="#464646"/>
<path fill-rule="evenodd" clip-rule="evenodd" d="M15.6443 27.091C15.6443 26.6685 15.9868 26.326 16.4093 26.326H18.0456C18.4681 26.326 18.8106 26.6685 18.8106 27.091C18.8106 27.5135 18.4681 27.856 18.0456 27.856H16.4093C15.9868 27.856 15.6443 27.5135 15.6443 27.091Z" fill="#464646"/>
<path fill-rule="evenodd" clip-rule="evenodd" d="M21.2351 27.091C21.2351 26.6685 21.5776 26.326 22.0001 26.326H23.6365C24.059 26.326 24.4015 26.6685 24.4015 27.091C24.4015 27.5135 24.059 27.856 23.6365 27.856H22.0001C21.5776 27.856 21.2351 27.5135 21.2351 27.091Z" fill="#464646"/>
</svg>
