<svg viewBox="0 0 27 35" fill="none" xmlns="http://www.w3.org/2000/svg">
<path fill-rule="evenodd" clip-rule="evenodd" d="M0.759766 0.873596H26.2402V9.10329H0.759766V0.873596ZM2.25977 2.3736V7.60329H24.7402V2.3736H2.25977Z" fill="#464646"/>
<path fill-rule="evenodd" clip-rule="evenodd" d="M0.759766 7.60327H26.2402V34.1264H0.759766V7.60327ZM2.25977 9.10327V32.6264H24.7402V9.10327H2.25977Z" fill="#464646"/>
<path fill-rule="evenodd" clip-rule="evenodd" d="M18.3896 31.2828H23.3967V29.0246H18.3896V31.2828Z" fill="#464646"/>
<path fill-rule="evenodd" clip-rule="evenodd" d="M20.2917 4.99999C20.2917 4.60879 20.6089 4.29166 21.0001 4.29166H22.5152C22.9064 4.29166 23.2236 4.60879 23.2236 4.99999C23.2236 5.39119 22.9064 5.70832 22.5152 5.70832H21.0001C20.6089 5.70832 20.2917 5.39119 20.2917 4.99999Z" fill="#464646"/>
<path fill-rule="evenodd" clip-rule="evenodd" d="M16.2917 4.99999C16.2917 4.60879 16.6089 4.29166 17.0001 4.29166H18.5152C18.9064 4.29166 19.2236 4.60879 19.2236 4.99999C19.2236 5.39119 18.9064 5.70832 18.5152 5.70832H17.0001C16.6089 5.70832 16.2917 5.39119 16.2917 4.99999Z" fill="#464646"/>
<path fill-rule="evenodd" clip-rule="evenodd" d="M13.5001 12.8947C9.85733 12.8947 6.9043 15.8477 6.9043 19.4905C6.9043 23.1332 9.85733 26.0863 13.5001 26.0863C17.1428 26.0863 20.0959 23.1332 20.0959 19.4905C20.0959 15.8477 17.1428 12.8947 13.5001 12.8947ZM5.4043 19.4905C5.4043 15.0193 9.02891 11.3947 13.5001 11.3947C17.9713 11.3947 21.5959 15.0193 21.5959 19.4905C21.5959 23.9617 17.9713 27.5863 13.5001 27.5863C9.02891 27.5863 5.4043 23.9617 5.4043 19.4905Z" fill="#464646"/>
</svg>
