<svg width="137" height="39" viewBox="0 0 137 39" fill="none" xmlns="http://www.w3.org/2000/svg">
<path fill-rule="evenodd" clip-rule="evenodd" d="M89.2976 19.1702C89.9616 16.427 92.8726 15.5685 94.52 15.4911H112.315C114.965 15.5685 116.847 17.7986 116.377 20.5257L113.862 34.0805C113.253 37.4272 110.684 38.1146 108.446 38.1469H91.0384C87.9081 38.1179 86.451 34.9454 86.9765 32.1441L89.2976 19.1702ZM94.9068 22.8494C95.1002 22.2556 95.4419 21.8264 96.6476 21.8812H108.059C109.143 21.8296 109.742 22.6848 109.413 23.8176L108.253 30.2077C108.03 31.1727 107.173 31.8569 106.125 31.9505H95.1002C94.0719 31.8569 93.4722 30.8274 93.5528 29.8204L94.9068 22.8494Z" fill="#6C6C6C"/>
<path d="M126.628 17.4275L128.175 16.072C128.923 15.5685 129.778 15.5685 130.69 15.4911H136.299L135.139 21.8812H128.949C127.382 21.8263 125.242 22.6009 124.887 24.7858L122.373 38.1469H115.99L120.245 15.4911H125.854L126.628 17.4275Z" fill="#6C6C6C"/>
<path fill-rule="evenodd" clip-rule="evenodd" d="M30.3037 21.8813H33.7853L34.9458 15.4912H31.4642L34.1721 0H27.9826L25.2747 15.4912H7.67329C5.95829 15.5686 3.04728 16.4271 2.4509 19.1703L0.129834 32.1442C-0.463327 34.9455 0.990562 38.118 4.1917 38.147H24.3076C25.7389 38.1147 27.5345 36.8302 27.7892 34.8551L30.3037 21.8813ZM8.25679 31.9505C7.16073 31.857 6.56112 30.8274 6.70941 29.8205L8.06014 22.8495C8.18587 22.2557 8.52758 21.8296 9.60752 21.8813H24.1142L22.18 31.9505H8.25679Z" fill="#6C6C6C"/>
<path fill-rule="evenodd" clip-rule="evenodd" d="M36.88 21.8813H52.3538C53.9141 21.8296 53.0566 23.6273 51.9669 23.624H37.4603C35.7582 23.6273 32.8472 24.4857 32.2379 27.3032L31.4642 32.1442C30.8775 34.9423 32.3314 38.1147 35.5261 38.147H51.9669C53.6562 38.1147 56.5672 37.2595 57.1893 34.4679L59.5104 21.494C60.0745 18.7411 58.6207 15.5686 55.4485 15.4912H38.0406L36.88 21.8813ZM39.0078 29.8203C37.4701 29.8848 37.6409 31.8567 38.6209 31.9503H51.3868L51.7736 29.8203H39.0078Z" fill="#6C6C6C"/>
<path d="M70.1518 21.8813H86.0125L87.173 15.4912H68.0242C66.4156 15.5686 63.5046 16.4239 62.9952 19.1703L60.4807 32.1442C59.9939 34.9423 61.4511 38.1147 64.5426 38.147H82.9177L84.0782 31.9505H68.7979C67.6148 31.8569 67.0152 30.8274 67.2505 29.8205L68.411 22.8495C68.6399 22.2556 68.9849 21.8264 70.1518 21.8813Z" fill="#6C6C6C"/>
</svg>
