<svg width="142" height="28" viewBox="0 0 142 28" fill="none" xmlns="http://www.w3.org/2000/svg">
<path d="M19.9078 17.1138H7.025V19.8643H16.7341C17.4629 19.8643 15.4411 26.8229 11.2331 26.8229H0.207459V14.6689C0.207459 13.517 2.67588 10.4608 5.56746 10.1787C5.84957 10.1787 17.7215 10.1787 17.5804 10.1787C16.9927 10.3198 18.7324 9.89661 19.4611 9.02679C19.8843 8.43907 19.7433 7.87486 20.0489 7.42819H0.0664062C0.207459 6.41731 0.795178 0.775208 6.15518 0.775208H26.8664V22.4973C25.7145 24.8247 23.9748 26.8464 20.2134 26.7054" fill="#6C6C6C"/>
<path d="M120.549 13.9171C120.549 16.9497 121.278 19.2771 122.712 20.8757C124.146 22.4743 125.909 23.203 128.072 23.203C130.235 23.203 131.974 22.4743 133.432 20.8757C134.889 19.2771 135.454 16.9732 135.454 13.9171C135.454 10.8609 134.725 8.55707 133.432 6.95847C132.139 5.50093 130.235 4.6311 128.072 4.6311C125.909 4.6311 124.028 5.35987 122.712 6.95847C121.278 8.41601 120.549 10.7199 120.549 13.9171ZM115.048 14.0581C115.048 11.3076 115.471 8.98023 116.2 7.09952C116.788 5.80654 117.657 4.49005 118.668 3.47917C119.679 2.4683 120.831 1.59847 122.148 1.01075C123.887 0.28198 125.768 -0.00012207 127.931 -0.00012207C131.833 -0.00012207 135.03 1.15181 137.499 3.62023C139.826 6.08865 141.119 9.56794 141.119 13.8936C141.119 18.2427 139.967 21.5574 137.64 24.0258C135.171 26.4943 131.998 27.7872 128.072 27.7872C124.028 27.7872 120.831 26.6353 118.504 24.1669C116.2 21.7455 115.048 18.2662 115.048 14.0581ZM91.7273 27.2465V0.446543H97.2283V12.3185L108.23 0.446543H115.471L105.339 10.8844L116.059 27.2465H109.1L101.577 14.6458L97.2283 19.136V27.2465H91.7273ZM64.9508 18.5483L70.1697 17.9606C70.4518 19.7002 71.1806 20.9932 72.0504 21.863C73.0613 22.7329 74.3778 23.156 75.9529 23.156C77.6925 23.156 78.9855 22.7329 79.8553 22.0041C80.7252 21.2753 81.1483 20.4055 81.1483 19.3946C81.1483 18.8069 81.0073 18.2427 80.5606 17.796C80.1139 17.3493 79.5497 16.9262 78.6799 16.6441C78.0922 16.362 76.6581 16.0564 74.3308 15.4922C71.4392 14.7634 69.4174 13.8936 68.242 12.8827C66.6434 11.4251 65.7736 9.54444 65.7736 7.52269C65.7736 6.2297 66.1967 4.91321 66.9255 3.62023C67.6543 2.4683 68.8062 1.59847 70.2638 0.869698C71.7213 0.281979 73.4609 -0.00012207 75.4827 -0.00012207C78.8209 -0.00012207 81.4304 0.728646 83.1466 2.16268C84.8627 3.59672 85.756 5.64198 85.8971 8.11041L80.5371 8.39251C80.255 6.93496 79.8083 6.06514 79.0796 5.35988C78.3508 4.77216 77.1988 4.49005 75.6003 4.49005C74.0017 4.49005 72.8497 4.77216 71.8388 5.50093C71.2511 5.92409 70.969 6.5118 70.969 7.09952C70.969 7.68724 71.2511 8.25146 71.8388 8.69812C72.5676 9.28584 74.1662 9.85005 76.7522 10.4378C79.3617 11.0255 81.3834 11.7308 82.5353 12.3185C83.8283 13.0472 84.8627 13.9171 85.568 15.069C86.2967 16.2209 86.5788 17.6785 86.5788 19.4181C86.5788 21.0167 86.1557 22.4508 85.2859 23.7672C84.416 25.0602 83.2641 26.0946 81.6655 26.7999C80.0669 27.5287 78.1862 27.8108 75.8824 27.8108C72.5441 27.8108 69.9346 27.082 68.0539 25.4834C66.3848 23.9083 65.3739 21.5809 64.9508 18.5483ZM54.6539 16.6676L50.8925 6.67637L47.2722 16.6676H54.6539ZM64.6452 27.2465H58.6974L56.3701 21.1578H45.6501L43.4873 27.2465H37.7041L48.142 0.446543H53.9252L64.6452 27.2465Z" fill="#6C6C6C"/>
</svg>
