<svg width="148" height="39" viewBox="0 0 148 39" fill="none" xmlns="http://www.w3.org/2000/svg">
<path d="M147.207 35.0384C147.207 37.0884 145.531 38.7646 143.481 38.7646H4.60971C2.56196 38.7646 0.885742 37.0884 0.885742 35.0384V3.72607C0.885742 1.67622 2.56196 0 4.60971 0H143.481C145.531 0 147.207 1.67622 147.207 3.72607V35.0384ZM143.481 37.1877C144.667 37.1877 145.63 36.2222 145.63 35.0384V3.72607C145.63 2.54017 144.667 1.57681 143.481 1.57681H4.60971C3.42601 1.57681 2.46044 2.54017 2.46044 3.72607V35.0384C2.46044 36.2222 3.42601 37.1877 4.60971 37.1877H143.481Z" fill="#6C6C6C"/>
<path d="M67.8426 8.67377C54.9923 8.67377 54.6035 9.91794 54.6035 19.284C54.6035 28.6738 54.9923 29.9202 67.8426 29.9202C80.7231 29.9202 81.1379 28.6738 81.1379 19.284C81.1379 9.91794 80.7231 8.67377 67.8426 8.67377ZM73.5776 25.8506C72.5948 26.5938 70.9445 26.76 67.8426 26.76C64.7364 26.76 63.1077 26.5938 62.1271 25.8506C61.1788 25.14 61.0643 22.9 61.0643 19.2927C61.0643 15.7113 61.1788 13.467 62.1271 12.7499C63.1077 12.0241 64.7364 11.8382 67.8426 11.8382C70.9445 11.8382 72.5948 12.0241 73.5776 12.7499C74.5561 13.467 74.6447 15.7113 74.6447 19.2927C74.6447 22.9 74.5561 25.14 73.5776 25.8506Z" fill="#6C6C6C"/>
<path d="M94.2214 25.7006C93.9686 25.7006 93.7807 25.4717 93.7807 25.2125V15.7082C93.7807 11.6386 91.5666 9.25166 87.7131 9.07236C87.5575 9.07236 87.281 9.0249 87.1363 9.12642C86.9894 9.25167 86.9268 9.40724 86.9268 9.593V26.2493C86.9268 28.3208 88.2163 29.5304 90.519 29.5304H105.568C106.618 29.5304 107.473 28.6492 107.473 27.5821C107.473 26.5474 106.618 25.7006 105.568 25.7006H94.2214Z" fill="#6C6C6C"/>
<path d="M32.0332 26.5289C34.5951 26.5289 44.6372 29.1944 44.9807 29.3003C46.0802 29.5746 47.0846 29.1944 47.6657 28.7451C48.2251 28.2678 48.8105 27.4189 48.8105 26.3431V9.59398C48.8105 9.4061 48.7306 9.25264 48.5858 9.12739C48.4389 9.02588 48.1733 9.07334 48.0048 9.07334C44.1836 9.25264 41.9695 11.6396 41.9695 15.7091V24.0708C41.9695 24.3386 41.7082 24.6173 41.3993 24.5481C39.6367 24.0902 34.6987 22.9 32.0332 22.8698C29.3504 22.9 24.3866 24.0902 22.639 24.5481C22.341 24.6173 22.0666 24.3386 22.0666 24.0708V15.7091C22.0666 11.6396 19.8591 9.25264 16.0444 9.07334C15.8521 9.07334 15.5799 9.02588 15.433 9.12739C15.2775 9.25264 15.2041 9.4061 15.2041 9.59398V26.3431C15.2041 27.4189 15.7981 28.2678 16.3533 28.7451C16.9473 29.1944 17.9539 29.5746 19.0663 29.3003C19.386 29.1944 29.4238 26.5289 32.0332 26.5289Z" fill="#6C6C6C"/>
<path d="M109.815 12.3752C109.815 10.5651 111.306 9.07245 113.103 9.07245H133.302C133.423 9.07245 133.585 9.1265 133.691 9.25399C133.762 9.36843 133.762 9.59309 133.753 9.77885C133.585 13.0406 131.513 14.8788 128.023 14.9047H116.879C116.607 14.9047 116.404 15.1337 116.404 15.4014V18.5185C116.404 18.7755 116.607 18.9894 116.879 18.9894H128.612C129.651 18.9894 130.531 19.8513 130.531 20.8838C130.531 21.9595 129.651 22.8387 128.612 22.8387H116.879C116.607 22.8387 116.404 23.0438 116.404 23.2837V26.2192C116.404 28.0315 114.935 29.5305 113.103 29.5305C111.306 29.5305 109.815 28.0315 109.815 26.2192V12.3752Z" fill="#6C6C6C"/>
<path fill-rule="evenodd" clip-rule="evenodd" d="M32.4766 5.63537C32.6451 5.47347 32.9237 5.57709 32.954 5.81045C33.0684 6.63986 33.5048 8.2967 35.1572 9.9944C37.3756 12.2734 39.918 14.9107 37.2417 18.1098C37.0775 18.3108 36.7514 18.1941 36.7406 17.9349C36.7125 17.1702 36.5051 15.9951 35.5849 15.2888C35.5849 15.2888 35.3776 15.1117 35.0968 15.224C34.9736 15.2737 34.8613 15.3904 34.8159 15.6517C34.6885 16.3753 35.4121 19.7904 31.8912 20.4967C28.3703 21.201 26.5753 18.4252 26.5753 18.4252C26.5753 18.4252 23.7456 14.5327 28.07 10.3466C28.2299 10.191 28.4977 10.2883 28.5107 10.5107C28.5604 11.4698 28.785 13.3577 29.7549 13.7098C30.8436 14.1051 31.4959 13.0812 31.6104 12.5973C31.7249 12.1135 31.7378 10.9492 31.1805 8.90791C30.796 7.49748 31.8437 6.24025 32.4766 5.63537Z" fill="#6C6C6C"/>
</svg>
