<svg width="180" height="39" viewBox="0 0 180 39" fill="none" xmlns="http://www.w3.org/2000/svg">
<path d="M0.973633 0C23.4117 3.02315 63.9183 3.37023 90.2422 3.37023C116.566 3.37023 157.073 3.02315 179.511 0C176.962 5.201 175.194 11.9341 175.194 19.4136C175.194 26.895 176.962 33.6282 179.511 38.8291C157.073 35.8061 116.566 35.4571 90.2422 35.4571C63.9183 35.4571 23.4117 35.8061 0.973633 38.8291C3.52208 33.6282 5.28905 26.895 5.28905 19.4136C5.28905 11.9341 3.52208 5.201 0.973633 0ZM173.862 19.4136C173.862 13.2361 175.08 7.01015 177.32 1.61673C160.123 3.68855 131.581 4.6974 90.2422 4.6974C48.9036 4.6974 20.3615 3.68855 3.16472 1.61673C5.40455 7.01015 6.62105 13.2361 6.62105 19.4136C6.62105 25.5912 5.40455 31.8189 3.16472 37.2124C20.3651 35.1388 48.9072 34.1299 90.2422 34.1299C131.577 34.1299 160.117 35.1388 177.32 37.2124C175.08 31.8189 173.862 25.5912 173.862 19.4136Z" fill="#6C6C6C"/>
<path d="M87.0747 18.8624H84.4937L86.0188 16.2296H82.9686L84.2573 14.0049L83.2465 13.4223L81.9561 15.6487L80.4309 13.0141L78.9058 15.6487L77.6154 13.4206L76.6028 14.0032L77.8933 16.2296H74.8413L76.3664 18.8624H73.7891V20.0278H76.3682L74.8413 22.6588L77.8933 22.6607L76.6028 24.8853L77.6154 25.4697L78.9058 23.2433L80.4309 25.8762L81.9561 23.2416L83.2465 25.4697L84.2573 24.8853L82.9686 22.6588L86.0188 22.6607L84.4937 20.0278H87.0747V18.8624ZM78.5719 21.4881H76.8826L77.7273 20.0278H79.4184L78.5719 21.4881ZM77.7273 18.8624L76.8826 17.4039L78.5719 17.4022L79.4184 18.8624H77.7273ZM80.4309 23.5275L79.5863 22.069L80.4309 20.6105L81.2756 22.069L80.4309 23.5275ZM80.4309 18.2798L79.5863 16.8213L80.4309 15.3627L81.2756 16.8213L80.4309 18.2798ZM82.2881 21.4881L81.4435 20.0278H83.1347L83.9793 21.4881H82.2881ZM83.1347 18.8624H81.4435L82.2881 17.4039H83.9793L83.1347 18.8624Z" fill="#6C6C6C"/>
<path d="M27.0368 17.693H19.2036C18.4384 17.6913 17.8139 17.069 17.8139 16.3083V15.839C17.8139 15.0728 18.4366 14.4524 19.2036 14.4524H30.7512V10.8682H19.2036C16.453 10.8682 14.2168 13.0964 14.2168 15.839V16.3083C14.2168 19.0473 16.453 21.2773 19.2036 21.2773H27.0368C27.8038 21.2791 28.4283 21.8996 28.4301 22.662V23.1296C28.4283 23.894 27.8038 24.518 27.0368 24.5198H15.0092V28.1022H27.0368C28.3706 28.1022 29.6231 27.5824 30.5653 26.6455C31.5074 25.7103 32.0236 24.4623 32.0236 23.1315V22.662C32.0236 21.3331 31.5074 20.0849 30.5653 19.1462C29.6231 18.2093 28.3687 17.693 27.0368 17.693Z" fill="#6C6C6C"/>
<path d="M48.0845 23.1304C48.0845 23.8966 47.4474 24.5189 46.6641 24.5189H39.4536C38.6902 24.5171 38.0657 23.8948 38.0657 23.1304V10.8672H34.4668V23.1304C34.4668 25.8713 36.703 28.1013 39.4536 28.1013H46.6641C48.0105 28.1013 49.2721 27.5851 50.2161 26.6463C51.16 25.7112 51.6798 24.4631 51.6798 23.1304V10.8672H48.0845V23.1304Z" fill="#6C6C6C"/>
<path d="M67.1807 10.8672H54.9834V28.1013H67.1807C68.5271 28.1013 69.7869 27.5833 70.729 26.6463C71.6748 25.7112 72.1946 24.4631 72.1946 23.1305V22.4418C72.1946 21.2566 71.7903 20.138 71.0503 19.2586C71.7903 18.3576 72.1946 17.2336 72.1946 16.0593V15.8381C72.1946 14.5072 71.6748 13.2574 70.729 12.3222C69.7869 11.3852 68.5253 10.8672 67.1807 10.8672ZM58.5787 21.057H67.1807C67.9622 21.057 68.5993 21.6774 68.5993 22.4418V23.1305C68.5993 23.8966 67.9622 24.5207 67.1807 24.5207H58.5787V21.057ZM67.1807 17.4439H58.5787V14.4533H67.1807C67.9622 14.4533 68.5993 15.0737 68.5993 15.8381V16.0593C68.5993 16.8343 67.9748 17.4422 67.1807 17.4439Z" fill="#6C6C6C"/>
<path d="M108.252 12.3239C107.308 13.261 106.79 14.5073 106.79 15.8381V23.1305C106.79 24.4613 107.308 25.7095 108.252 26.6446C109.191 27.5834 110.445 28.1013 111.779 28.1013H124.005V24.5189H111.781C111.012 24.5171 110.387 23.8948 110.387 23.1305V21.2746H121.951V17.6922H110.387V15.8381C110.387 15.0738 111.012 14.4533 111.779 14.4533H124.005V10.8672H111.779C110.445 10.8672 109.191 11.3852 108.252 12.3239Z" fill="#6C6C6C"/>
<path d="M144.996 18.1035V15.8375C144.996 14.5084 144.476 13.2604 143.532 12.3216C142.589 11.3846 141.327 10.8668 139.98 10.8668H127.783V28.1008H131.38V23.0994H136.024L141.051 28.1008H146.209L141.054 22.9879C143.336 22.4988 144.993 20.5007 144.996 18.1035ZM131.38 14.4527H139.98C140.776 14.4527 141.399 15.0606 141.399 15.8375V18.1035C141.399 18.866 140.764 19.4864 139.98 19.4883H131.38V14.4527Z" fill="#6C6C6C"/>
<path d="M164.395 12.3229C163.453 11.384 162.191 10.8679 160.845 10.8679H153.636C152.301 10.8679 151.048 11.384 150.108 12.3246C149.165 13.2616 148.647 14.5078 148.647 15.8386V23.1312C148.647 24.4601 149.165 25.7083 150.108 26.6435C151.046 27.5822 152.299 28.1002 153.636 28.1002H160.845C162.191 28.1002 163.453 27.5839 164.393 26.647C165.339 25.7137 165.859 24.4656 165.859 23.1312V15.8386C165.859 14.5043 165.339 13.2562 164.395 12.3229ZM152.246 15.8386C152.248 15.0743 152.871 14.4521 153.636 14.4521H160.845C161.626 14.4521 162.263 15.0726 162.263 15.8386V23.1312C162.263 23.8955 161.626 24.5195 160.845 24.5195H153.636C152.871 24.5178 152.248 23.8936 152.246 23.1312V15.8386Z" fill="#6C6C6C"/>
<path d="M92.3173 24.5194C92.1277 24.5194 91.9779 24.3684 91.9779 24.1813C91.9779 24.0681 92.0339 23.9674 92.1205 23.9044L102.367 17.5759C103.589 16.763 104.265 15.5581 104.262 14.3082C104.262 13.4 103.879 12.5188 103.211 11.8965C102.504 11.2311 101.504 10.8679 100.399 10.8679H87.455V14.4521H99.3382C99.5277 14.4521 99.6793 14.6031 99.6793 14.7902C99.6793 14.9034 99.6216 15.006 99.5349 15.0671L88.9602 21.606C87.8195 22.3182 87.1896 23.4314 87.1914 24.6202C87.1896 25.5284 87.5885 26.4168 88.2852 27.0535C89.0288 27.7296 90.0792 28.1018 91.2434 28.1018H103.982V24.5194H92.3173Z" fill="#6C6C6C"/>
</svg>
