<svg width="162" height="46" viewBox="0 0 162 46" fill="none" xmlns="http://www.w3.org/2000/svg">
<path fill-rule="evenodd" clip-rule="evenodd" d="M82.604 39.6267H87.0893V28.3282H82.604V39.6267ZM82.604 26.8834H87.0893V23.6919H82.604V26.8834ZM95.2113 37.2641C93.8963 37.2641 93.2486 35.8105 93.2486 34.1072C93.2486 32.7699 93.5276 31.0231 95.2113 31.0231C95.7063 31.0231 96.0945 31.1741 96.3744 31.4762C96.6552 31.7561 96.9751 32.1453 96.9973 32.6411H101.546C101.223 29.2985 98.2297 28.0048 95.2113 28.0048C91.4804 28.0048 88.7642 30.2261 88.7642 34.0858C88.7642 37.9021 91.5666 39.951 95.2113 39.951C98.3372 39.951 101.245 39.011 101.633 35.583H97.1048C96.9742 36.4653 96.3735 37.2641 95.2113 37.2641ZM152.467 34.9913C152.886 30.6544 150.008 28.0048 145.825 28.0048C142.204 28.0048 139.422 30.3771 139.422 34.0858C139.422 37.8807 142.519 40.1723 146.143 40.1723C148.772 40.1723 151.446 39.4428 152.173 36.8118H147.883C147.559 37.48 146.911 37.6639 146.199 37.6551C144.393 37.6337 143.905 36.3285 143.905 34.9921L145.906 34.9753V34.9921L152.467 34.9913ZM143.906 32.7051C143.906 31.4985 144.661 30.7432 145.998 30.7432C147.054 30.7432 147.981 31.6708 147.981 32.7051L145.907 32.7228V32.7051H143.906ZM43.0806 34.0876C43.0806 34.0876 39.61 23.6021 39.61 23.6759H33.6284V39.6258H38.207C38.0959 36.9309 37.9858 32.8321 38.207 30.1737L41.3088 39.6258H44.8532L47.8066 30.4687C47.9177 33.2382 47.9541 36.524 47.8066 39.6258H52.3852V23.6768H46.4774L43.0806 34.0876ZM154.801 28.3282H153.293V30.9156H154.781V39.6267H159.265V30.9156H161.141V28.3282H159.265C159.158 26.5174 159.675 26.5174 161.141 26.5174V23.6919H159.222C156.354 23.6919 154.801 24.3396 154.801 28.3282ZM76.6829 28.3282V29.5943C75.885 28.4952 74.2803 28.0048 72.9226 28.0048C69.2139 28.0048 67.8767 30.9565 67.8767 33.7375L67.8945 33.7402H67.8767C67.8767 36.6297 69.6662 39.0883 72.7929 39.0883C74.41 39.0883 75.6451 38.9257 76.3595 38.2646V38.7862C76.3595 40.4033 76.1986 41.362 74.6953 41.3549C74.131 41.3522 73.5499 41.1736 73.3562 41.0013C73.1617 40.8289 73.0764 40.6343 73.0764 40.5055H68.5698C68.7857 42.1652 70.4668 43.761 74.4562 43.761C80.0184 43.761 80.6288 41.1088 80.6288 37.7235V28.3291L76.6829 28.3282ZM74.2412 36.388C73.127 36.3694 72.473 35.4631 72.3762 34.1258C72.4668 32.9743 73.0115 31.1972 74.2412 31.2177C75.6646 31.2177 76.3852 32.6109 76.3604 33.654C76.3213 35.2694 75.6202 36.4538 74.2412 36.388ZM66.3822 37.9669V32.6846C66.3822 29.9888 66.0588 28.0048 60.7116 28.0048C56.2485 28.0048 54.2494 29.4069 54.2494 31.7997H58.5614C58.6689 30.8294 59.8053 30.6997 60.4308 30.6997C60.9044 30.6997 61.8969 30.8081 61.8969 31.6273C61.8969 33.7402 53.559 31.4114 53.559 36.5435C53.559 38.8937 55.4569 39.9501 57.5911 39.9501C59.2731 39.9501 60.4708 39.8115 61.617 38.8244L62.3492 39.6258H66.7634V39.4108C66.4524 39.0732 66.3822 38.6129 66.3822 37.9669ZM59.6187 37.4063C58.7364 37.4063 58.1971 37.0135 58.1953 36.4547C58.1989 34.9921 60.4326 35.3351 61.8978 34.6243C62.0053 36.1766 61.1923 37.4063 59.6187 37.4063ZM116.982 36.5364C114.395 36.5364 113.477 34.1925 113.477 32.0147C113.477 29.0177 114.999 27.4868 116.788 27.4868C118.383 27.4868 119.619 28.3033 119.769 29.9195H124.599C124.346 26.4081 121.781 23.6759 116.277 23.691C111.943 23.7043 108.537 26.8186 108.537 31.8423C108.537 36.8874 111.369 40.0692 117.143 40.0354C121.24 40.0123 124.144 38.1491 125.021 33.9801H120.109C119.913 35.4675 118.62 36.5364 116.982 36.5364ZM133.486 28.0048C131.976 28.0048 130.631 28.609 129.725 29.7516V24.1024H125.277V39.6276H129.725V33.8708C129.725 32.4261 130.425 31.5429 131.804 31.5429C133.077 31.5429 133.378 32.5336 133.378 33.6558V39.6285H137.864V32.8588C137.864 29.7516 136.462 28.0048 133.486 28.0048Z" fill="#6C6C6C"/>
<path d="M17.8702 15.457C17.4081 15.6765 17.6489 15.0829 17.8702 15.0145C18.0914 14.8954 18.5348 14.9834 18.8369 15.1416C19.1159 15.2855 18.9489 15.529 18.6485 15.4677C18.6342 15.4648 18.6147 15.4599 18.5912 15.4539C18.4415 15.4163 18.1243 15.3365 17.8702 15.457Z" fill="#6C6C6C"/>
<path fill-rule="evenodd" clip-rule="evenodd" d="M37.2125 15.7973C37.1032 15.6765 36.9255 15.6534 36.7372 15.7343C35.8877 16.0666 35.6363 15.8809 35.4524 15.6614C35.224 15.4028 34.8819 15.4197 34.5576 15.7023C31.4344 18.4878 26.9278 19.3417 24.519 19.6029C23.5887 19.7104 22.8522 19.722 22.4408 19.6233C22.2373 19.8268 21.8419 19.9921 21.5904 19.9699C21.534 19.9663 21.4788 19.9518 21.4278 19.9272C22.0376 19.3519 22.4887 18.6291 22.7375 17.8285C23.1107 17.4251 23.443 16.9062 23.5781 16.6494L23.5785 16.6486C23.6181 16.5731 23.7367 16.3467 23.6118 16.1883C23.4919 16.0355 23.2396 16.0977 23.1676 16.1154C23.0272 16.119 22.9197 15.7742 22.9197 15.577C22.7011 14.1269 21.841 12.8528 20.5535 12.0762C20.8574 11.5475 21.219 11.4027 21.5451 11.2739C22.9677 10.7052 24.264 9.11739 25.2467 6.70149C26.1521 4.47573 25.4822 2.00296 24.7447 1.03268C24.0072 0.061524 22.4194 -0.272559 20.9703 0.236567C20.0555 0.557766 18.353 2.07159 16.9829 3.28978L16.9669 3.30406C16.232 3.95765 15.5983 4.52128 15.2446 4.76094C14.7479 5.0977 14.0691 5.34027 13.209 5.64681L13.1882 5.65423C12.3378 5.95772 11.2809 6.33493 10.0947 6.92807C9.02401 7.46296 8.34606 8.19244 8.07772 9.09696C7.8085 10.005 7.98798 11.0642 8.5833 12.078C9.64242 13.8826 12.2982 13.3184 12.691 13.1007C12.9397 12.9621 13.3449 13.074 13.5679 13.2659C13.7901 13.4561 13.7261 13.744 13.6399 13.9394C13.2362 14.6646 13.0242 15.4809 13.0242 16.3109C13.0242 16.8405 13.1077 17.362 13.2712 17.8614C13.3049 17.9627 13.3023 18.0738 13.2649 18.1208C13.2427 18.1493 13.1948 18.1599 13.1246 18.1537C13.0389 18.1386 12.9507 18.1521 12.8736 18.1923C12.7964 18.2325 12.7347 18.297 12.6981 18.3758C12.6456 18.4958 12.6554 18.6726 12.8393 18.8112C13.0304 18.9552 13.5511 19.2013 14.0238 19.2981C14.663 20.1468 15.5563 20.7694 16.5738 21.0752L17.2153 23.0495L18.9053 22.225C19.1825 22.0863 19.6606 21.9842 20.175 22.1086L22.0791 22.4355C22.4976 21.818 22.8353 21.6367 23.0174 21.6332C23.0773 21.6334 23.1364 21.6473 23.1901 21.6737C23.2439 21.7002 23.2909 21.7386 23.3275 21.786C24.9677 24.0109 25.2236 25.7098 25.1037 27.7285C24.9766 29.8636 22.5376 30.8197 21.3212 30.8357C19.2954 30.8819 17.7769 30.2306 16.8048 28.9022C15.1655 26.6596 15.5476 23.085 15.9989 21.7709C6.89332 19.8108 4.35035 15.5486 3.54979 14.1767L3.45116 14.0096C3.33832 13.8124 3.18372 13.6924 2.99268 13.656C2.74656 13.6089 2.45868 13.7102 2.11837 13.9608L1.0477 13.2251C0.80424 12.9869 0.594548 12.9123 0.423062 13.0065C0.284452 13.0829 0.277344 13.8843 0.277344 13.8843L0.76248 15.3397C0.844224 15.6019 0.957067 15.9599 1.44931 16.2007C2.86918 17.0466 3.84656 17.8747 4.34058 18.6557L13.2259 27.5099C13.7838 27.9986 13.7492 28.777 13.6221 29.3447C12.2867 33.1005 7.27538 37.8604 7.27538 37.8604H12.5337C13.7794 37.8604 13.8069 38.3108 13.8398 38.8804C13.8745 39.473 13.7323 41.8241 13.4764 42.7384C13.2223 43.6447 12.9842 43.873 12.3969 44.1014C11.9384 44.28 11.8762 44.4986 11.9037 44.6496C11.9428 44.8602 12.1801 44.9855 12.3853 44.9855C12.3853 44.9855 12.9469 45.0663 13.5395 44.3448C13.8274 43.9948 17.5885 39.4828 17.8968 39.1763C18.0612 38.9968 18.2949 38.8013 18.5073 38.8608C18.7445 38.9266 18.9151 39.274 18.9737 39.569C19.075 40.0737 19.147 44.8922 19.147 44.8922L19.3416 44.8744C19.9493 44.8193 20.3936 45.0752 20.7508 45.2814C20.8334 45.3293 20.9125 45.3738 20.9854 45.4111C21.1817 45.5088 21.3781 45.4857 21.4625 45.3542C21.5211 45.2618 21.5238 45.1134 21.3532 44.9775C20.8521 44.5643 20.5811 44.1911 20.5518 43.8713C20.5242 43.5834 20.6975 43.3488 20.8619 43.1524C22.4648 41.2288 27.1473 35.1219 28.0554 32.4643C29.1083 29.382 28.8524 25.4068 28.0127 23.4182C28.7484 22.368 33.9037 18.9454 34.9486 18.6931C36.4066 18.3412 36.6785 17.6819 37.1521 16.5304C37.3778 16.1199 37.2916 15.8853 37.2125 15.7973ZM4.44898 16.4238L3.59955 17.052C3.59955 17.052 2.4178 16.2025 2.01175 15.9813C1.60569 15.7601 1.43954 15.5379 1.29204 15.2429L1.12589 14.6148C1.12589 13.9875 2.04907 14.7258 2.49244 15.1692C2.7901 15.4669 3.04599 15.6499 2.97225 15.3167C2.73234 14.541 3.11974 14.246 3.41562 14.8733C3.46479 14.9795 3.51379 15.0713 3.56276 15.163C3.62441 15.2784 3.68603 15.3938 3.74793 15.5379C3.859 15.7965 4.35657 16.35 4.44898 16.4238ZM3.89543 17.3097L4.70754 16.645L5.26109 17.1622L4.48541 17.9005L3.89543 17.3097ZM34.2863 18.3808C34.6791 18.2569 35.1484 18.1088 35.463 17.937C35.6665 17.8259 35.814 17.6597 35.8513 17.5673C35.9695 17.2723 36.2023 16.4407 35.2978 16.8841C34.9081 17.0752 34.7737 16.956 34.6363 16.8341C34.5591 16.7656 34.4809 16.6962 34.3559 16.6806C34.1855 16.6595 33.8507 16.945 33.5217 17.2255C33.3927 17.3355 33.2645 17.4448 33.1475 17.5345L33.8388 18.5278C33.9613 18.4833 34.1167 18.4343 34.2863 18.3808ZM32.7681 17.7895L32.1035 18.1591L32.7308 19.1187L33.4692 18.75L32.7681 17.7895ZM14.7132 12.8048C15.6035 11.9702 16.7787 11.5069 17.999 11.5093C18.6921 11.5093 19.3611 11.656 19.9564 11.919C20.3589 11.547 20.5926 10.0778 20.701 9.39628C20.7218 9.26539 20.738 9.16352 20.7499 9.1041C20.8236 8.73448 20.9996 8.83666 20.9534 9.07656C20.9161 9.22494 20.8299 10.0815 20.8059 10.3409C20.7774 10.6368 21.1018 11.0695 22.0978 10.4058C23.0947 9.74118 24.3138 7.69223 24.7563 6.43674C25.1996 5.18126 25.3107 2.9475 24.2018 1.50809C23.0938 0.0677837 21.0636 0.76972 20.3989 1.28595C20.1735 1.46134 19.6764 1.91277 19.0687 2.46452C17.8847 3.5396 16.2813 4.99554 15.4516 5.53223C14.8519 5.92016 13.9657 6.20713 13.0063 6.51777C11.9574 6.85744 10.821 7.22541 9.8761 7.78464C8.06706 8.85532 8.4358 11.034 9.28523 12.0309C10.1347 13.0278 11.9437 12.7693 12.2396 12.6218C12.2825 12.6085 12.3284 12.5954 12.3761 12.5818C12.8627 12.4425 13.5265 12.2525 12.9042 11.4036C12.794 11.2552 12.8678 11.1726 13.0153 11.2099C13.1903 11.3485 13.3565 11.6435 13.4213 11.9385C13.5022 12.3064 13.6435 12.4743 13.9384 12.7693C14.2334 13.0634 14.3809 13.1007 14.7132 12.8048ZM22.3324 17.0874C21.2795 18.0293 19.163 17.9564 18.8671 17.9004C18.5712 17.8453 18.4975 17.9191 18.701 18.0675C19.7343 18.5659 21.4376 18.3376 21.9725 18.2079C21.6545 18.8745 21.1739 19.4504 20.5749 19.8825C19.976 20.3147 19.2779 20.5891 18.545 20.6806C17.8121 20.7721 17.0679 20.6778 16.3811 20.4062C15.6942 20.1346 15.0868 19.6946 14.6146 19.1266C15.1309 19.0324 15.8559 18.7232 16.0603 18.4176C16.19 18.3065 16.134 18.1963 15.8941 18.3438C15.6542 18.4913 14.7914 18.6726 14.2379 18.5988C13.9651 18.1515 13.7749 17.6589 13.6763 17.1443C13.8209 17.0046 14.0115 16.9016 14.1731 16.8144C14.2807 16.7563 14.3755 16.7051 14.4351 16.6547C14.5728 16.5398 14.836 16.4619 15.0702 16.3925L15.0709 16.3923C15.101 16.3834 15.1305 16.3746 15.1593 16.3659C15.3112 16.3162 15.4543 16.2655 15.4214 16.0985C15.3956 15.9626 14.8474 15.9226 14.5738 16.0176C14.1179 16.1776 13.8203 16.1563 13.6115 15.9617C13.6616 15.3696 13.8311 14.7938 14.1098 14.269C14.3884 13.7441 14.7705 13.2812 15.2329 12.908C15.6953 12.5349 16.2285 12.2592 16.8003 12.0977C17.3722 11.9362 17.9708 11.8921 18.5601 11.9682C19.1494 12.0442 19.7172 12.2389 20.2293 12.5403C20.7413 12.8418 21.1871 13.2438 21.5396 13.7222C21.8921 14.2005 22.144 14.7453 22.2803 15.3237C22.4165 15.902 22.4343 16.502 22.3324 17.0874Z" fill="#6C6C6C"/>
</svg>
