<svg width="135" height="45" viewBox="0 0 135 45" fill="none" xmlns="http://www.w3.org/2000/svg">
<path d="M11.9141 0C5.82858 0 0.907227 4.92135 0.907227 11.0069V33.6028C0.907227 39.6883 5.82858 44.6097 11.9141 44.6097H123.994C130.08 44.6097 135.001 39.6883 135.001 33.6028V11.0069C135.001 4.92135 130.08 0 123.994 0M4.34688 33.6028V11.0069C4.34688 6.82639 7.73362 3.43966 11.9141 3.43966H123.994C128.174 3.43966 131.561 6.82639 131.561 11.0069V33.6028C131.561 37.7833 128.174 41.17 123.994 41.17H11.9141C7.73362 41.17 4.34688 37.7833 4.34688 33.6028Z" fill="#6C6C6C"/>
<path d="M9.69123 8.62543C9.58539 8.41376 9.58539 8.09625 10.0617 8.09625H20.3806C20.3806 8.09625 21.1744 8.41376 20.3806 8.89002C20.3806 8.89002 17.9993 9.89546 18.3697 12.0122L22.3915 23.3366L26.9424 12.8589C26.9424 12.8589 28.0537 10.4776 25.0374 8.94294C25.0374 8.94294 24.0319 8.20209 25.0374 8.20209H36.6793C36.6793 8.20209 37.526 8.46668 36.6793 8.94294C35.8326 9.4192 34.6684 10.2659 33.8747 12.118C33.0809 13.9701 23.5557 36.0368 23.5557 36.0368C23.5557 36.0368 23.2382 36.2485 23.1323 35.9839L13.2896 12.0122C13.2896 12.0122 12.2313 8.78418 10.0087 8.8371C10.0087 8.8371 9.79706 8.78418 9.69123 8.62543Z" fill="#6C6C6C"/>
<path d="M102.139 33.3906C101.134 33.3906 96.6355 33.3906 96.6355 33.3906C96.6355 33.3906 95.683 33.2318 96.6355 32.5968C97.588 31.9618 98.911 31.3797 98.911 29.6334C98.911 27.8871 98.911 17.039 98.911 17.039C98.911 17.039 98.6993 14.0227 96.2122 13.6522C96.2122 13.6522 95.4184 12.8585 96.5297 12.8585H105.261C105.261 12.8585 106.372 12.9114 105.261 13.6522C104.15 14.3931 102.139 15.716 102.139 17.1448C102.139 18.5736 102.139 29.6863 102.139 29.6863" fill="#6C6C6C"/>
<path d="M88.0628 18.3619C88.0628 21.6957 88.0628 29.6334 88.0628 29.6334C88.0628 29.6334 88.8036 32.0147 90.7616 32.5968C90.7616 32.5968 91.7141 33.3376 90.7087 33.3376C89.7032 33.3376 82.5593 33.3376 82.5593 33.3376C82.5593 33.3376 81.0776 33.4964 82.5593 32.5439C83.5118 31.9089 84.8348 31.3268 84.8348 29.5805C84.8348 27.8342 84.8348 16.986 84.8348 16.986C84.8348 16.986 84.6231 13.9697 82.136 13.5993C82.136 13.5993 81.3422 12.8055 82.4535 12.8055H91.9787L98.9109 26.6171L99.2284 30.8505L96.9001 33.3376H96.265L88.0628 18.3619Z" fill="#6C6C6C"/>
<path d="M68.9595 12.8055H70.5999H82.0302C82.0302 12.8055 83.1414 12.8585 82.0302 13.5993C80.9189 14.3402 78.908 15.6631 78.908 17.0919C78.908 18.5207 78.908 29.6334 78.908 29.6334C78.908 29.6334 79.6489 32.0147 81.6068 32.5968C81.6068 32.5968 83.3002 33.3376 81.5539 33.3376C80.5485 33.3376 70.7587 33.3376 70.7587 33.3376H69.3828L69.4357 32.8085L70.8116 32.5439C71.7641 31.9089 73.0871 31.3268 73.0871 29.5805C73.0871 27.8342 73.0871 16.986 73.0871 16.986C73.0871 16.986 72.8754 13.9168 70.1766 13.3876L69.0124 13.176" fill="#6C6C6C"/>
<path d="M69.0653 13.2289C69.0653 13.2289 64.2498 14.5518 61.498 18.4677L68.3244 32.2264C68.3244 32.2264 68.589 32.9143 69.3828 32.8614V33.3906H59.2226C59.2226 33.3906 58.7463 33.1789 59.2226 32.6497C59.6988 32.1205 60.4397 31.5914 60.4397 29.898L57.0529 23.0187L54.0895 26.2467L54.0366 22.9658L61.0747 15.8748C61.0747 15.8748 62.821 13.6522 59.593 13.6522C59.593 13.6522 58.7992 12.8585 59.593 12.8585H69.0124" fill="#6C6C6C"/>
<path d="M122.883 11.3241L123.994 20.5848C123.994 20.5848 123.571 21.2198 123.253 20.6377C122.936 20.0556 120.713 14.3405 115.315 14.3405C115.315 14.3405 109.23 14.4992 109.23 24.289C109.23 34.0788 113.357 34.8726 114.151 34.7667C114.151 34.7667 118.385 34.5551 118.385 29.5808C118.385 29.5808 118.279 26.4057 116.162 25.9824C116.162 25.9824 115.157 25.2944 116.109 25.2944C117.062 25.2944 126.058 25.2944 126.058 25.2944C126.058 25.2944 127.01 25.3474 126.111 26.0353C125.211 26.7232 124.206 26.8291 124.206 28.3108C124.206 29.7395 124.206 36.9364 124.206 36.9364C124.206 36.9364 124.364 37.8889 123.306 36.9364C122.248 35.9838 120.925 34.7667 117.432 35.5605C113.252 36.513 114.469 36.513 111.823 36.3013C111.823 36.3013 102.933 33.92 102.933 24.289C102.933 14.658 111.188 12.2237 115.157 12.3296C115.157 12.3296 117.062 12.3296 118.808 13.2292C118.808 13.2292 121.454 14.4992 121.983 11.2712C122.089 11.3241 122.724 9.84245 122.883 11.3241Z" fill="#6C6C6C"/>
<path d="M32.0229 12.8055H33.6634H45.0936C45.0936 12.8055 46.2049 12.8585 45.0936 13.5993C43.9824 14.3402 41.9715 15.6631 41.9715 17.0919C41.9715 18.5207 41.9715 29.6334 41.9715 29.6334C41.9715 29.6334 42.7123 32.0147 44.6703 32.5968C44.6703 32.5968 46.3637 33.3376 44.6174 33.3376C43.6119 33.3376 33.8222 33.3376 33.8222 33.3376H32.4463L32.4992 32.8085L33.8751 32.5439C34.8276 31.9089 36.1505 31.3268 36.1505 29.5805C36.1505 27.8342 36.1505 16.986 36.1505 16.986C36.1505 16.986 35.9389 13.9168 33.2401 13.3876L32.0759 13.176" fill="#6C6C6C"/>
<path d="M44.4585 12.8055H46.099H57.5292C57.5292 12.8055 58.6405 12.8585 57.5292 13.5993C56.4179 14.3402 54.407 15.6631 54.407 17.0919C54.407 18.5207 54.407 29.6334 54.407 29.6334C54.407 29.6334 55.1479 32.0147 57.1058 32.5968C57.1058 32.5968 58.7992 33.3376 57.0529 33.3376C56.0475 33.3376 46.2577 33.3376 46.2577 33.3376H44.8818L44.9348 32.8085L46.3106 32.5439C47.2631 31.9089 48.5861 31.3268 48.5861 29.5805C48.5861 27.8342 48.5861 16.986 48.5861 16.986C48.5861 16.986 48.3744 13.9168 45.6756 13.3876L44.5114 13.176" fill="#6C6C6C"/>
</svg>
