<svg width="143" height="47" viewBox="0 0 143 47" fill="none" xmlns="http://www.w3.org/2000/svg">
<g clip-path="url(#clip0_11_235)">
<path d="M55.4393 43.0936C55.1638 43.0221 54.904 42.9001 54.673 42.7339L55.0111 41.9831C55.522 42.3633 56.4946 42.5959 57.0606 42.3057C57.4516 42.0659 57.2189 41.6293 56.8364 41.5526C56.0197 41.2948 54.7365 41.2432 54.7581 40.1135C54.8061 38.5545 57.0366 38.5149 58.0704 39.1541L57.7622 39.9109C57.2189 39.5991 56.455 39.4312 55.9501 39.7082C55.6851 39.8737 55.6695 40.2658 55.9801 40.3942C56.3015 40.5489 57.1554 40.6952 57.4912 40.8403C58.2035 41.0525 58.4865 41.9532 58.0488 42.5672C57.5103 43.3287 56.2931 43.3347 55.4393 43.0936Z" fill="#1274E0"/>
<path d="M65.9673 42.3586V43.1584H62.6263V38.8496H65.8822V39.6555H63.6228V40.5909H65.6243V41.3656H63.6228V42.3633L65.9673 42.3586Z" fill="#1274E0"/>
<path d="M73.2922 42.235H71.2919L70.9106 43.1584H69.8888L71.8076 38.8496H72.7922L74.7193 43.1584H73.6724L73.2922 42.235ZM72.978 41.4783L72.2945 39.8282L71.6121 41.4783H72.978Z" fill="#1274E0"/>
<path d="M79.5354 39.6627H78.1563V38.8496H81.9111V39.6627H80.532V43.1584H79.5354V39.6627Z" fill="#1274E0"/>
<path d="M87.099 39.6627H85.7199V38.8496H89.4747V39.6627H88.0955V43.1584H87.099V39.6627Z" fill="#1274E0"/>
<path d="M93.7032 38.8496H94.7009V42.3466H96.8595V43.1584H93.702L93.7032 38.8496Z" fill="#1274E0"/>
<path d="M104.451 42.3586V43.1584H101.114V38.8496H104.37V39.6555H102.105V40.5909H104.105V41.3656H102.105V42.3633L104.451 42.3586Z" fill="#1274E0"/>
<path d="M59.3883 5.17725C60.56 5.17725 61.9715 5.27439 63.1395 5.63775L62.974 7.29989C61.9199 7.2771 60.4868 7.24712 59.3763 7.25072C58.8859 7.26391 58.4565 7.22314 58.0764 7.40662C57.5559 7.68724 57.6315 8.81572 57.9864 9.1587C58.1671 9.33378 58.4769 9.49368 58.9158 9.63839C60.0539 10.0389 62.444 10.5618 62.9932 11.5967C63.6132 12.423 63.6516 14.3046 63.2894 15.282C62.5063 17.7224 57.4839 16.9417 55.3229 16.51L55.4872 14.7327C56.6685 14.6404 60.3693 15.198 60.8346 14.4041C61.2184 13.5407 60.9365 12.5993 59.8752 12.429C58.7312 12.0033 56.3207 11.4288 55.7295 10.3903C55.0891 9.58922 55.0507 7.68844 55.4249 6.74584C56.0725 5.17005 57.8029 5.22761 59.3883 5.17725Z" fill="#DADADA"/>
<path d="M74.3595 5.39111C74.2288 7.2907 74.7061 13.3708 73.9314 14.9922C73.2119 16.6459 71.7788 16.9385 69.9164 16.9745C67.9712 16.9325 66.4518 16.6771 65.6555 14.9922C64.8161 13.4044 65.3257 7.25952 65.195 5.39111H67.7134V12.2195C67.6798 13.8385 68.0216 15.0677 69.7869 14.9778C71.5246 15.0725 71.8855 13.8073 71.8424 12.2195V5.39111H74.3595Z" fill="#DADADA"/>
<path d="M84.7413 11.7831C84.3895 11.2738 83.7751 10.9804 82.8981 10.9029V10.8045C85.1347 10.7578 85.2678 7.8808 84.511 6.41174C83.7016 5.27247 82.4232 5.32284 80.875 5.25928C79.2908 5.26887 78.0652 5.24489 76.5577 5.3912V16.7431C78.2367 16.863 79.6158 16.8774 81.3954 16.875C82.8549 16.8223 84.0865 16.8283 84.8588 15.7238C85.462 14.8315 85.3745 12.5986 84.7413 11.7831ZM80.7431 7.0857C81.4482 7.12048 82.0071 7.07132 82.3309 7.63736C82.5707 8.25616 82.6642 9.68445 81.8368 9.93269C81.3199 10.1402 79.6362 10.0418 79.0318 10.0634V7.0857H80.7431ZM82.5935 14.4322C82.0934 15.436 79.9552 14.9311 79.0318 15.0414V11.6596C81.4218 11.6932 83.373 11.1775 82.5935 14.4322Z" fill="#DADADA"/>
<path d="M94.9732 14.8684V16.7428H86.5821V14.8684L92.0662 7.26769H86.714V5.39209H94.8424V7.26769L89.3751 14.8684H94.9732Z" fill="#DADADA"/>
<path d="M104.36 14.8023L104.479 16.6275C103.358 16.7223 102.111 16.775 100.942 16.7846C99.0349 16.8374 96.7444 17.0329 96.664 14.5061V7.62851C96.6473 6.22541 97.6918 5.32358 99.0829 5.34157C100.848 5.34997 102.744 5.33078 104.479 5.50587L104.36 7.33229C103.915 7.42104 99.6166 7.10924 99.3815 7.54576C99.0109 7.86116 99.2328 9.5077 99.1764 9.94422H103.75V11.7251H99.1764C99.2424 12.1892 98.9942 14.2615 99.3815 14.5876C99.5938 15.0254 103.93 14.7112 104.36 14.8023Z" fill="#DADADA"/>
<path d="M114.29 13.2063C114.116 12.3152 113.488 11.6473 112.662 11.4949V11.4122C115.101 11.3223 115.239 8.12871 114.414 6.56731C113.591 5.32011 112.231 5.27933 110.622 5.22656C108.978 5.23496 107.797 5.20618 106.245 5.39086V16.7428H108.73V12.2924C109.356 12.3752 110.658 12.1042 111.321 12.5155C111.866 12.8345 112.4 16.172 112.628 16.7428H115.273L114.29 13.2063ZM112.155 9.76686C111.746 10.761 109.618 10.3101 108.725 10.4084V7.12615C110.976 7.15613 112.94 6.59969 112.155 9.76686Z" fill="#DADADA"/>
<path d="M121.365 5.16073C125.432 5.0552 126.27 7.33854 126.252 11.0682C126.27 14.7954 125.432 17.0799 121.365 16.9744C117.3 17.0751 116.438 14.805 116.462 11.067C116.438 7.33254 117.299 5.0588 121.365 5.16073ZM121.365 7.15146C119.123 7.10109 119.152 9.1086 119.111 11.067C119.152 13.0121 119.126 15.04 121.365 14.9836C123.589 15.0328 123.56 13.0037 123.602 11.0682C123.562 9.1182 123.59 7.10709 121.365 7.15626V7.15146Z" fill="#DADADA"/>
<path d="M70.1311 18.8286L68.2711 29.4909C68.23 29.6933 68.1178 29.8743 67.9548 30.001C67.7917 30.1277 67.5887 30.1918 67.3824 30.1817C66.9231 30.1193 64.7909 30.3556 64.4455 29.9838C64.3639 29.923 64.2951 29.8466 64.2431 29.7592C64.191 29.6717 64.1567 29.5749 64.1421 29.4742C63.9622 28.3948 62.751 21.5496 62.6778 20.5998H62.3648C62.3349 21.5065 61.0817 28.4188 60.9174 29.4742C60.8874 29.6777 60.7779 29.861 60.6128 29.9838C60.2782 30.3568 58.1076 30.1181 57.659 30.1817C57.2513 30.1913 56.8316 29.8963 56.7704 29.4909L54.9116 18.8286H57.4456C57.6087 20.071 58.7863 27.2748 58.7779 28.3721H59.0909C59.2492 27.3047 60.3909 20.8001 60.6044 19.6021C60.6299 19.3858 60.7351 19.1868 60.8994 19.0438C61.0636 18.9008 61.2753 18.8241 61.493 18.8286C61.9451 18.8933 63.8219 18.6475 64.1505 19.0432C64.3104 19.1889 64.4126 19.3873 64.4383 19.6021C64.6422 20.8217 65.8342 27.2772 65.9517 28.3721H66.2803C66.2803 27.3527 67.4388 19.9942 67.5995 18.8286H70.1311Z" fill="#DADADA"/>
<path d="M76.1692 18.5982C80.237 18.4938 81.0741 20.776 81.0561 24.5056C81.0741 28.234 80.237 30.5173 76.1692 30.4118C72.1038 30.5137 71.2415 28.2424 71.2655 24.5056C71.2427 20.77 72.1002 18.4962 76.1692 18.5982ZM76.1692 20.5889C73.9266 20.5385 73.9566 22.5472 73.9146 24.5056C73.9554 26.4507 73.9302 28.4774 76.1692 28.4211C78.3926 28.4702 78.365 26.4411 78.407 24.5056C78.3662 22.5568 78.395 20.5457 76.1692 20.5877V20.5889Z" fill="#DADADA"/>
<path d="M85.4488 18.8281C85.5424 19.044 85.209 28.139 85.6791 27.9423C85.9681 28.374 89.832 28.0718 90.3021 28.1569L90.422 30.0481C88.8259 30.2352 87.0642 30.2208 85.4368 30.2292C84.6142 30.2292 83.9918 30.0074 83.5696 29.5636C83.1475 29.1199 82.9364 28.5523 82.9364 27.8607V18.8281H85.4488Z" fill="#DADADA"/>
<path d="M94.268 21.6098V23.5862H98.6764V25.361H94.268V30.1819H91.7496V21.1002C91.7496 20.3974 91.9747 19.835 92.4248 19.4128C93.299 18.535 94.7993 18.8228 95.9865 18.788C97.1186 18.8 98.337 18.8432 99.4175 18.9607L99.2856 20.7704H95.1722C94.6038 20.7704 94.2668 21.0402 94.268 21.6098Z" fill="#DADADA"/>
<path d="M108.647 18.6313C109.931 18.6313 110.881 18.6877 112.053 19.0259L111.855 20.8691C108.257 20.8691 106.393 19.7634 106.475 24.5052C106.509 26.3616 106.509 28.284 108.647 28.2228C109.795 28.2396 110.943 28.1903 112.085 28.0753L112.3 29.9173C109.773 30.5901 105.307 31.053 104.295 27.9602C103.67 26.4012 103.67 22.6128 104.295 21.0502C105.03 19.111 106.549 18.6685 108.647 18.6313Z" fill="#DADADA"/>
<path d="M120.181 19.487C120.129 19.296 120.016 19.1277 119.858 19.0085C119.7 18.8893 119.507 18.826 119.309 18.8286C118.877 18.8886 116.691 18.6655 116.372 19.0097C116.214 19.1287 116.101 19.2978 116.051 19.4894L112.743 30.1817H115.326L116.166 27.1836H120.069L120.902 30.1817H123.469L120.181 19.487ZM116.686 25.2949C116.903 24.4554 117.783 21.5245 117.894 20.721H118.338C118.458 21.5053 119.327 24.4806 119.545 25.2949H116.686Z" fill="#DADADA"/>
<path d="M132.669 26.6437C132.494 25.7527 131.868 25.0847 131.04 24.9324V24.8509C133.479 24.7598 133.617 21.565 132.792 20.0048C131.968 18.7576 130.611 18.718 129 18.6641C127.357 18.6713 126.174 18.6449 124.623 18.8284V30.1815H127.108V25.7311C127.734 25.8127 129.036 25.5429 129.699 25.953C130.244 26.2732 130.779 29.6094 131.006 30.1815H133.656L132.669 26.6437ZM130.538 23.2056C130.126 24.1985 128.001 23.75 127.108 23.8471V20.5636C129.355 20.5876 131.317 20.0336 130.538 23.2056Z" fill="#DADADA"/>
<path d="M142.886 28.2396L143.006 30.066C141.886 30.1584 140.636 30.2135 139.468 30.2219C137.561 30.2759 135.271 30.469 135.191 27.9434V21.067C135.174 19.6651 136.218 18.7621 137.609 18.78C139.375 18.7884 141.272 18.7705 143.006 18.9443L142.886 20.7708C142.441 20.8595 138.143 20.5477 137.908 20.9842C137.537 21.2996 137.759 22.9474 137.703 23.3827H142.277V25.1588H137.698C137.764 25.6229 137.516 27.6963 137.903 28.0213C138.125 28.4626 142.463 28.152 142.886 28.2396Z" fill="#DADADA"/>
<path d="M38.7268 0.451172L30.1103 2.75969L29.2876 5.81773L29.1305 5.75297C26.6178 4.71967 23.9265 4.18997 21.2096 4.19397C9.69698 4.19397 0.342972 13.5564 0.342972 25.0606C0.345155 29.9096 2.03332 34.607 5.11831 38.3481L5.81027 39.1875L19.6434 25.3592L17.9141 18.9085L28.664 8.15743L27.8006 11.3786L34.1085 17.6865L42.7262 15.378L45.0347 6.76153L38.7268 0.451172ZM15.7123 18.3197L17.4416 24.7728L5.97097 36.2422C3.5987 33.0006 2.31899 29.0884 2.31691 25.0714C2.31691 14.6525 10.7931 6.1751 21.212 6.1751C23.1654 6.17192 25.1073 6.47252 26.9683 7.06613L15.7123 18.3197ZM41.1144 13.7626L34.6986 15.4823L30.0072 10.7861L31.7269 4.37146L38.1416 2.65176L42.8389 7.34915L41.1144 13.7626Z" fill="#DADADA"/>
<path d="M21.212 44.427C16.8134 44.4331 12.5449 42.9356 9.11416 40.1829L8.25431 39.4934L20.9842 26.7635L27.4372 28.4928L38.8995 17.0317L39.4271 18.4924C40.1875 20.6012 40.575 22.8262 40.5724 25.0678C40.5724 35.7422 31.8876 44.427 21.212 44.427ZM11.2332 39.3063C14.155 41.3599 17.6407 42.4591 21.212 42.4531C30.7987 42.4531 38.6009 34.6581 38.6009 25.0642C38.6012 23.5857 38.4134 22.1133 38.042 20.6822L28.0284 30.6946L21.5754 28.9653L11.2332 39.3063Z" fill="#1274E0"/>
<path d="M3.87844 41.4291L4.94576 42.4964L2.73198 44.2125L2.16714 43.6477L3.87844 41.4339V41.4291ZM3.72134 38.9683L0.00372314 43.7808L2.59406 46.3711L7.40658 42.6535L3.72134 38.9683Z" fill="#DADADA"/>
</g>
<defs>
<clipPath id="clip0_11_235">
<rect width="143" height="45.9234" fill="white" transform="translate(0 0.45166)"/>
</clipPath>
</defs>
</svg>
