<svg width="188" height="61" viewBox="0 0 188 61" fill="none" xmlns="http://www.w3.org/2000/svg">
<g id="Logo 1" clip-path="url(#clip0_1_12)">
<g id="Logo">
<g id="Seattle">
<path id="Vector" d="M72.8852 56.0612C72.523 55.9671 72.1814 55.8068 71.8777 55.5882L72.3224 54.6012C72.994 55.101 74.2726 55.4069 75.0168 55.0253C75.5308 54.71 75.2249 54.1361 74.722 54.0352C73.6483 53.6963 71.9613 53.6285 71.9897 52.1433C72.0528 50.0937 74.9853 50.0417 76.3443 50.882L75.9391 51.8769C75.2249 51.4669 74.2206 51.2462 73.5568 51.6104C73.2084 51.828 73.1879 52.3435 73.5963 52.5122C74.0188 52.7156 75.1413 52.908 75.5828 53.0987C76.5193 53.3778 76.8914 54.5618 76.3159 55.3691C75.608 56.3702 74.0078 56.3781 72.8852 56.0612Z" fill="#1274E0"/>
<path id="Vector_2" d="M86.7263 55.0947V56.1463H82.3338V50.4816H86.6143V51.541H83.644V52.7708H86.2754V53.7893H83.644V55.101L86.7263 55.0947Z" fill="#1274E0"/>
<path id="Vector_3" d="M96.3562 54.9323H93.7264L93.2251 56.1463H91.8818L94.4044 50.4816H95.6988L98.2324 56.1463H96.856L96.3562 54.9323ZM95.9432 53.9375L95.0445 51.7681L94.1474 53.9375H95.9432Z" fill="#1274E0"/>
<path id="Vector_4" d="M104.564 51.5505H102.751V50.4816H107.687V51.5505H105.874V56.1463H104.564V51.5505Z" fill="#1274E0"/>
<path id="Vector_5" d="M114.508 51.5505H112.695V50.4816H117.631V51.5505H115.818V56.1463H114.508V51.5505Z" fill="#1274E0"/>
<path id="Vector_6" d="M123.19 50.4816H124.502V55.0789H127.34V56.1463H123.189L123.19 50.4816Z" fill="#1274E0"/>
<path id="Vector_7" d="M137.32 55.0947V56.1463H132.934V50.4816H137.214V51.541H134.236V52.7708H136.866V53.7893H134.236V55.101L137.32 55.0947Z" fill="#1274E0"/>
</g>
<g id="SWC">
<path id="Vector_8" d="M78.077 6.21343C79.6173 6.21343 81.473 6.34114 83.0086 6.81885L82.7911 9.00403C81.4052 8.97408 79.5212 8.93466 78.0612 8.93939C77.4164 8.95673 76.852 8.90313 76.3522 9.14435C75.6679 9.51328 75.7672 10.9969 76.2339 11.4478C76.4715 11.678 76.8788 11.8882 77.4558 12.0784C78.952 12.605 82.0942 13.2924 82.8163 14.653C83.6314 15.7393 83.6818 18.213 83.2057 19.498C82.1762 22.7064 75.5733 21.68 72.7323 21.1124L72.9483 18.7759C74.5012 18.6545 79.3666 19.3876 79.9784 18.3439C80.4829 17.2087 80.1124 15.9711 78.7171 15.7472C77.213 15.1875 74.044 14.4323 73.2667 13.067C72.4248 12.0138 72.3744 9.51486 72.8663 8.27564C73.7176 6.20397 75.9927 6.27964 78.077 6.21343Z" fill="#101010"/>
<path id="Vector_9" d="M97.7594 6.49407C97.5876 8.99142 98.215 16.9848 97.1966 19.1164C96.2506 21.2906 94.3665 21.6753 91.9181 21.7226C89.3608 21.6674 87.3632 21.3316 86.3164 19.1164C85.2127 17.029 85.8828 8.95043 85.7109 6.49407H89.0218V15.4713C88.9777 17.5997 89.427 19.2157 91.7478 19.0975C94.0323 19.222 94.5069 17.5587 94.4501 15.4713V6.49407H97.7594Z" fill="#101010"/>
<path id="Vector_10" d="M111.408 14.8974C110.946 14.2279 110.138 13.8421 108.985 13.7402V13.6109C111.925 13.5494 112.1 9.76711 111.105 7.83576C110.041 6.33798 108.361 6.4042 106.325 6.32064C104.242 6.33325 102.631 6.30172 100.649 6.49407V21.4183C102.857 21.5759 104.67 21.5949 107.009 21.5917C108.928 21.5223 110.547 21.5302 111.563 20.0782C112.356 18.9052 112.241 15.9695 111.408 14.8974ZM106.152 8.72181C107.079 8.76753 107.813 8.7029 108.239 9.44706C108.554 10.2606 108.677 12.1383 107.59 12.4647C106.91 12.7375 104.697 12.6082 103.902 12.6365V8.72181H106.152ZM108.584 18.3801C107.927 19.6998 105.116 19.036 103.902 19.1811V14.735C107.044 14.7792 109.609 14.1012 108.584 18.3801Z" fill="#101010"/>
<path id="Vector_11" d="M124.86 18.954V21.4183H113.828V18.954L121.038 8.96146H114.002V6.49564H124.688V8.96146L117.5 18.954H124.86Z" fill="#101010"/>
<path id="Vector_12" d="M137.2 18.8673L137.358 21.2669C135.883 21.3915 134.244 21.4608 132.707 21.4735C130.2 21.5428 127.188 21.7998 127.083 18.4779V9.43602C127.061 7.59139 128.434 6.40577 130.263 6.42942C132.584 6.44046 135.076 6.41523 137.358 6.64542L137.2 9.0466C136.615 9.16326 130.964 8.75335 130.655 9.32724C130.168 9.74189 130.46 11.9066 130.386 12.4805H136.399V14.8217H130.386C130.473 15.4319 130.146 18.1563 130.655 18.5851C130.934 19.1606 136.635 18.7475 137.2 18.8673Z" fill="#101010"/>
<path id="Vector_13" d="M150.256 16.7688C150.027 15.5974 149.201 14.7192 148.115 14.519V14.4102C151.322 14.292 151.503 10.0935 150.418 8.04072C149.337 6.40105 147.549 6.34743 145.433 6.27806C143.271 6.2891 141.719 6.25127 139.678 6.49407V21.4183H142.945V15.5675C143.768 15.6763 145.48 15.3199 146.352 15.8607C147.068 16.2801 147.771 20.6678 148.071 21.4183H151.547L150.256 16.7688ZM147.448 12.2471C146.91 13.5541 144.113 12.9613 142.939 13.0906V8.77542C145.898 8.81484 148.481 8.08329 147.448 12.2471Z" fill="#101010"/>
<path id="Vector_14" d="M159.556 6.19135C164.904 6.05261 166.005 9.05448 165.981 13.9577C166.005 18.8579 164.904 21.8613 159.556 21.7226C154.213 21.855 153.08 18.8705 153.111 13.9562C153.08 9.0466 154.212 6.05734 159.556 6.19135ZM159.556 8.80854C156.61 8.74232 156.647 11.3816 156.594 13.9562C156.647 16.5134 156.613 19.1795 159.556 19.1054C162.481 19.17 162.443 16.5024 162.498 13.9577C162.445 11.3942 162.482 8.7502 159.556 8.81484V8.80854Z" fill="#101010"/>
<path id="Vector_15" d="M92.2003 24.16L89.7549 38.1777C89.701 38.4437 89.5535 38.6816 89.3391 38.8482C89.1248 39.0149 88.8578 39.0991 88.5867 39.0858C87.9828 39.0038 85.1796 39.3144 84.7256 38.8257C84.6183 38.7456 84.5279 38.6453 84.4594 38.5303C84.391 38.4153 84.3459 38.288 84.3267 38.1556C84.0902 36.7366 82.4978 27.7373 82.4016 26.4887H81.9901C81.9507 27.6806 80.3032 36.7682 80.0872 38.1556C80.0478 38.4232 79.9038 38.6642 79.6867 38.8257C79.2468 39.316 76.3932 39.0022 75.8035 39.0858C75.2675 39.0984 74.7156 38.7106 74.6352 38.1777L72.1915 24.16H75.5229C75.7373 25.7934 77.2855 35.2641 77.2745 36.7067H77.686C77.8941 35.3035 79.395 26.752 79.6757 25.1769C79.7093 24.8926 79.8475 24.6309 80.0635 24.443C80.2795 24.255 80.5577 24.1541 80.8439 24.16C81.4383 24.2451 83.9057 23.9219 84.3377 24.4422C84.548 24.6337 84.6823 24.8945 84.7161 25.1769C84.9841 26.7803 86.5513 35.2672 86.7058 36.7067H87.1378C87.1378 35.3666 88.6608 25.6925 88.872 24.16H92.2003Z" fill="#101010"/>
<path id="Vector_16" d="M100.139 23.8573C105.486 23.7201 106.587 26.7204 106.563 31.6237C106.587 36.5254 105.486 39.5272 100.139 39.3885C94.7938 39.5225 93.6602 36.5364 93.6917 31.6237C93.6618 26.7125 94.7891 23.7233 100.139 23.8573ZM100.139 26.4745C97.1902 26.4083 97.2297 29.0491 97.1745 31.6237C97.2281 34.1809 97.195 36.8454 100.139 36.7713C103.062 36.836 103.025 34.1683 103.08 31.6237C103.027 29.0617 103.065 26.4177 100.139 26.4729V26.4745Z" fill="#101010"/>
<path id="Vector_17" d="M112.338 24.16C112.461 24.4438 112.023 36.4008 112.641 36.1423C113.021 36.7098 118.101 36.3125 118.719 36.4245L118.877 38.9108C116.778 39.1567 114.462 39.1378 112.323 39.1489C111.241 39.1489 110.423 38.8572 109.868 38.2738C109.313 37.6905 109.035 36.9442 109.035 36.0351V24.16H112.338Z" fill="#101010"/>
<path id="Vector_18" d="M123.933 27.8162V30.4144H129.728V32.7478H123.933V39.0858H120.622V27.1461C120.622 26.2222 120.918 25.4828 121.509 24.9278C122.659 23.7737 124.631 24.1521 126.192 24.1064C127.68 24.1222 129.282 24.1789 130.703 24.3334L130.529 26.7125H125.122C124.374 26.7125 123.931 27.0673 123.933 27.8162Z" fill="#101010"/>
<path id="Vector_19" d="M142.836 23.9014C144.525 23.9014 145.774 23.9755 147.314 24.4201L147.054 26.8434C142.324 26.8434 139.874 25.3898 139.981 31.6237C140.025 34.0643 140.025 36.5916 142.836 36.5112C144.346 36.5332 145.855 36.4685 147.356 36.3173L147.639 38.7389C144.317 39.6234 138.445 40.232 137.115 36.1659C136.293 34.1163 136.293 29.1358 137.115 27.0815C138.081 24.5321 140.079 23.9503 142.836 23.9014Z" fill="#101010"/>
<path id="Vector_20" d="M158 25.0256C157.932 24.7745 157.783 24.5532 157.575 24.3965C157.368 24.2398 157.114 24.1566 156.854 24.16C156.286 24.2388 153.412 23.9456 152.993 24.3981C152.785 24.5545 152.636 24.7768 152.57 25.0287L148.222 39.0858H151.618L152.722 35.1443H157.854L158.948 39.0858H162.323L158 25.0256ZM153.406 32.6611C153.691 31.5575 154.847 27.7042 154.994 26.6479H155.577C155.735 27.679 156.878 31.5906 157.165 32.6611H153.406Z" fill="#101010"/>
<path id="Vector_21" d="M174.417 34.4348C174.187 33.2634 173.364 32.3852 172.276 32.185V32.0778C175.483 31.9579 175.665 27.7578 174.58 25.7067C173.497 24.067 171.712 24.015 169.595 23.944C167.435 23.9535 165.879 23.9188 163.84 24.16V39.0858H167.107V33.235C167.93 33.3422 169.642 32.9875 170.514 33.5267C171.23 33.9476 171.933 38.3338 172.232 39.0858H175.715L174.417 34.4348ZM171.616 29.9146C171.075 31.2201 168.281 30.6304 167.107 30.7581V26.4414C170.061 26.4729 172.641 25.7445 171.616 29.9146Z" fill="#101010"/>
<path id="Vector_22" d="M187.85 36.5333L188.008 38.9344C186.535 39.0558 184.892 39.1284 183.357 39.1394C180.85 39.2104 177.839 39.4642 177.733 36.1438V27.1035C177.711 25.2605 179.084 24.0733 180.913 24.0969C183.234 24.108 185.728 24.0843 188.008 24.3129L187.85 26.7141C187.265 26.8308 181.615 26.4209 181.306 26.9948C180.818 27.4094 181.11 29.5757 181.036 30.148H187.049V32.4829H181.03C181.116 33.0931 180.79 35.8191 181.299 36.2463C181.591 36.8265 187.294 36.4182 187.85 36.5333Z" fill="#101010"/>
</g>
<g id="Icon">
<path id="Vector_23" d="M50.9135 -3.8147e-06L39.5856 3.03497L38.504 7.05534L38.2975 6.97019C34.994 5.61172 31.4559 4.91534 27.884 4.9206C12.7485 4.9206 0.450905 17.2292 0.450905 32.3536C0.453775 38.7286 2.67319 44.9041 6.72897 49.8225L7.63868 50.9261L25.8249 32.7462L23.5514 24.2656L37.6842 10.1313L36.549 14.3661L44.842 22.6591L56.1715 19.6241L59.2065 8.29613L50.9135 -3.8147e-06ZM20.6568 23.4915L22.9302 31.9753L7.84995 47.054C4.73116 42.7922 3.04875 37.6489 3.04601 32.3678C3.04601 18.6702 14.1895 7.52516 27.8871 7.52516C30.4552 7.52098 33.0082 7.91618 35.4548 8.69659L20.6568 23.4915ZM54.0526 17.5004L45.6177 19.7612L39.45 13.5872L41.7109 5.15394L50.1442 2.89308L56.3197 9.06866L54.0526 17.5004Z" fill="#101010"/>
<path id="Vector_24" d="M27.8871 57.8144C22.1044 57.8224 16.4926 55.8537 11.9823 52.2347L10.8518 51.3282L27.5876 34.5924L36.0713 36.8659L51.1406 21.7982L51.8343 23.7186C52.8339 26.4909 53.3434 29.4161 53.3399 32.3631C53.3399 46.3965 41.9221 57.8144 27.8871 57.8144ZM14.7681 51.0822C18.6094 53.7821 23.192 55.2272 27.8871 55.2193C40.4906 55.2193 50.748 44.9713 50.748 32.3584C50.7484 30.4147 50.5015 28.4788 50.0133 26.5974L36.8486 39.7606L28.3648 37.4871L14.7681 51.0822Z" fill="#1274E0"/>
<path id="Vector_25" d="M5.09876 53.8728L6.50194 55.276L3.59152 57.5322L2.84893 56.7896L5.09876 53.8791V53.8728ZM4.89222 50.6376L0.0047226 56.9646L3.41021 60.3701L9.73715 55.4826L4.89222 50.6376Z" fill="#101010"/>
</g>
</g>
</g>
<defs>
<clipPath id="clip0_1_12">
<rect width="188" height="60.3748" fill="white"/>
</clipPath>
</defs>
</svg>
