<svg width="18" height="16" viewBox="0 0 18 16" fill="none" xmlns="http://www.w3.org/2000/svg">
<path fill-rule="evenodd" clip-rule="evenodd" d="M0 1.99995C0 1.42005 0.470101 0.949951 1.05 0.949951H16.05C16.6299 0.949951 17.1 1.42005 17.1 1.99995C17.1 2.57985 16.6299 3.04995 16.05 3.04995H1.05C0.470101 3.04995 0 2.57985 0 1.99995Z" fill="#1274E0"/>
<path fill-rule="evenodd" clip-rule="evenodd" d="M0 7.99995C0 7.42005 0.470101 6.94995 1.05 6.94995H16.05C16.6299 6.94995 17.1 7.42005 17.1 7.99995C17.1 8.57985 16.6299 9.04995 16.05 9.04995H1.05C0.470101 9.04995 0 8.57985 0 7.99995Z" fill="#1274E0"/>
<path fill-rule="evenodd" clip-rule="evenodd" d="M0 14C0 13.4201 0.470101 12.95 1.05 12.95H16.05C16.6299 12.95 17.1 13.4201 17.1 14C17.1 14.5799 16.6299 15.05 16.05 15.05H1.05C0.470101 15.05 0 14.5799 0 14Z" fill="#1274E0"/>
</svg>
